<?xml version="1.0" encoding="UTF-8" standalone="no"?>
<!DOCTYPE svg PUBLIC "-//W3C//DTD SVG 1.1//EN"
 "http://www.w3.org/Graphics/SVG/1.1/DTD/svg11.dtd">
<!-- Generated by graphviz version 2.40.1 (20161225.0304)
 -->
<!-- Title: G Pages: 1 -->
<svg width="1207pt" height="908pt"
 viewBox="0.00 0.00 1207.29 908.00" xmlns="http://www.w3.org/2000/svg" xmlns:xlink="http://www.w3.org/1999/xlink">
<g id="graph0" class="graph" transform="scale(1 1) rotate(0) translate(4 904)">
<title>G</title>
<polygon fill="#ffffff" stroke="transparent" points="-4,4 -4,-904 1203.293,-904 1203.293,4 -4,4"/>
<!-- 0 -->
<g id="node1" class="node">
<title>0</title>
<ellipse fill="none" stroke="#000000" cx="31.1972" cy="-882" rx="31.3957" ry="18"/>
<text text-anchor="middle" x="31.1972" y="-878.3" font-family="Times,serif" font-size="14.00" fill="#000000">data</text>
</g>
<!-- 2 -->
<g id="node3" class="node">
<title>2</title>
<ellipse fill="none" stroke="#000000" cx="76.1972" cy="-810" rx="32.4942" ry="18"/>
<text text-anchor="middle" x="76.1972" y="-806.3" font-family="Times,serif" font-size="14.00" fill="#000000">conv</text>
</g>
<!-- 0&#45;&gt;2 -->
<g id="edge1" class="edge">
<title>0&#45;&gt;2</title>
<path fill="none" stroke="#000000" d="M41.8616,-864.937C47.2741,-856.277 53.964,-845.5731 59.9968,-835.9207"/>
<polygon fill="#000000" stroke="#000000" points="62.9648,-837.7757 65.2968,-827.4407 57.0288,-834.0657 62.9648,-837.7757"/>
</g>
<!-- 1 -->
<g id="node2" class="node">
<title>1</title>
<ellipse fill="none" stroke="#000000" cx="122.1972" cy="-882" rx="42.4939" ry="18"/>
<text text-anchor="middle" x="122.1972" y="-878.3" font-family="Times,serif" font-size="14.00" fill="#000000">data_1</text>
</g>
<!-- 1&#45;&gt;2 -->
<g id="edge2" class="edge">
<title>1&#45;&gt;2</title>
<path fill="none" stroke="#000000" d="M111.0619,-864.5708C105.5812,-855.9922 98.8626,-845.4762 92.7912,-835.9732"/>
<polygon fill="#000000" stroke="#000000" points="95.5634,-833.8113 87.23,-827.2687 89.6645,-837.58 95.5634,-833.8113"/>
</g>
<!-- 7 -->
<g id="node8" class="node">
<title>7</title>
<ellipse fill="none" stroke="#000000" cx="271.1972" cy="-738" rx="66.0889" ry="18"/>
<text text-anchor="middle" x="271.1972" y="-734.3" font-family="Times,serif" font-size="14.00" fill="#000000">batch_norm</text>
</g>
<!-- 2&#45;&gt;7 -->
<g id="edge3" class="edge">
<title>2&#45;&gt;7</title>
<path fill="none" stroke="#000000" d="M101.8528,-798.6889C107.2261,-796.409 112.8763,-794.0766 118.1972,-792 151.5568,-778.9807 189.515,-765.5752 219.2777,-755.3778"/>
<polygon fill="#000000" stroke="#000000" points="220.7043,-758.5892 229.0385,-752.0477 218.444,-751.9642 220.7043,-758.5892"/>
</g>
<!-- 3 -->
<g id="node4" class="node">
<title>3</title>
<ellipse fill="none" stroke="#000000" cx="169.1972" cy="-810" rx="42.4939" ry="18"/>
<text text-anchor="middle" x="169.1972" y="-806.3" font-family="Times,serif" font-size="14.00" fill="#000000">data_2</text>
</g>
<!-- 3&#45;&gt;7 -->
<g id="edge4" class="edge">
<title>3&#45;&gt;7</title>
<path fill="none" stroke="#000000" d="M191.0788,-794.5542C205.0069,-784.7226 223.2925,-771.8151 238.8776,-760.8139"/>
<polygon fill="#000000" stroke="#000000" points="241.062,-763.5561 247.2133,-754.9298 237.0252,-757.8373 241.062,-763.5561"/>
</g>
<!-- 4 -->
<g id="node5" class="node">
<title>4</title>
<ellipse fill="none" stroke="#000000" cx="271.1972" cy="-810" rx="42.4939" ry="18"/>
<text text-anchor="middle" x="271.1972" y="-806.3" font-family="Times,serif" font-size="14.00" fill="#000000">data_3</text>
</g>
<!-- 4&#45;&gt;7 -->
<g id="edge5" class="edge">
<title>4&#45;&gt;7</title>
<path fill="none" stroke="#000000" d="M271.1972,-791.8314C271.1972,-784.131 271.1972,-774.9743 271.1972,-766.4166"/>
<polygon fill="#000000" stroke="#000000" points="274.6973,-766.4132 271.1972,-756.4133 267.6973,-766.4133 274.6973,-766.4132"/>
</g>
<!-- 5 -->
<g id="node6" class="node">
<title>5</title>
<ellipse fill="none" stroke="#000000" cx="373.1972" cy="-810" rx="42.4939" ry="18"/>
<text text-anchor="middle" x="373.1972" y="-806.3" font-family="Times,serif" font-size="14.00" fill="#000000">data_4</text>
</g>
<!-- 5&#45;&gt;7 -->
<g id="edge6" class="edge">
<title>5&#45;&gt;7</title>
<path fill="none" stroke="#000000" d="M351.3157,-794.5542C337.3875,-784.7226 319.1019,-771.8151 303.5169,-760.8139"/>
<polygon fill="#000000" stroke="#000000" points="305.3693,-757.8373 295.1812,-754.9298 301.3325,-763.5561 305.3693,-757.8373"/>
</g>
<!-- 6 -->
<g id="node7" class="node">
<title>6</title>
<ellipse fill="none" stroke="#000000" cx="475.1972" cy="-810" rx="42.4939" ry="18"/>
<text text-anchor="middle" x="475.1972" y="-806.3" font-family="Times,serif" font-size="14.00" fill="#000000">data_5</text>
</g>
<!-- 6&#45;&gt;7 -->
<g id="edge7" class="edge">
<title>6&#45;&gt;7</title>
<path fill="none" stroke="#000000" d="M442.4211,-798.432C409.8533,-786.9374 359.4582,-769.1509 321.7601,-755.8457"/>
<polygon fill="#000000" stroke="#000000" points="322.5746,-752.4217 311.9798,-752.3939 320.2448,-759.0226 322.5746,-752.4217"/>
</g>
<!-- 9 -->
<g id="node10" class="node">
<title>9</title>
<ellipse fill="none" stroke="#000000" cx="334.1972" cy="-666" rx="43.5923" ry="18"/>
<text text-anchor="middle" x="334.1972" y="-662.3" font-family="Times,serif" font-size="14.00" fill="#000000">conv_1</text>
</g>
<!-- 7&#45;&gt;9 -->
<g id="edge8" class="edge">
<title>7&#45;&gt;9</title>
<path fill="none" stroke="#000000" d="M286.7703,-720.2022C294.5133,-711.3531 303.9986,-700.5127 312.4463,-690.8583"/>
<polygon fill="#000000" stroke="#000000" points="315.2861,-692.9278 319.2372,-683.0972 310.0181,-688.3182 315.2861,-692.9278"/>
</g>
<!-- 8 -->
<g id="node9" class="node">
<title>8</title>
<ellipse fill="none" stroke="#000000" cx="398.1972" cy="-738" rx="42.4939" ry="18"/>
<text text-anchor="middle" x="398.1972" y="-734.3" font-family="Times,serif" font-size="14.00" fill="#000000">data_6</text>
</g>
<!-- 8&#45;&gt;9 -->
<g id="edge9" class="edge">
<title>8&#45;&gt;9</title>
<path fill="none" stroke="#000000" d="M383.0301,-720.937C374.98,-711.8806 364.9431,-700.5891 356.066,-690.6023"/>
<polygon fill="#000000" stroke="#000000" points="358.5151,-688.0893 349.2555,-682.9405 353.2832,-692.7399 358.5151,-688.0893"/>
</g>
<!-- 10 -->
<g id="node11" class="node">
<title>10</title>
<ellipse fill="none" stroke="#000000" cx="334.1972" cy="-594" rx="54.6905" ry="18"/>
<text text-anchor="middle" x="334.1972" y="-590.3" font-family="Times,serif" font-size="14.00" fill="#000000">max_pool</text>
</g>
<!-- 9&#45;&gt;10 -->
<g id="edge10" class="edge">
<title>9&#45;&gt;10</title>
<path fill="none" stroke="#000000" d="M334.1972,-647.8314C334.1972,-640.131 334.1972,-630.9743 334.1972,-622.4166"/>
<polygon fill="#000000" stroke="#000000" points="337.6973,-622.4132 334.1972,-612.4133 330.6973,-622.4133 337.6973,-622.4132"/>
</g>
<!-- 15 -->
<g id="node16" class="node">
<title>15</title>
<ellipse fill="none" stroke="#000000" cx="551.1972" cy="-522" rx="77.1866" ry="18"/>
<text text-anchor="middle" x="551.1972" y="-518.3" font-family="Times,serif" font-size="14.00" fill="#000000">batch_norm_1</text>
</g>
<!-- 10&#45;&gt;15 -->
<g id="edge11" class="edge">
<title>10&#45;&gt;15</title>
<path fill="none" stroke="#000000" d="M372.9925,-581.1278C407.6067,-569.6429 458.6348,-552.7119 497.2263,-539.9074"/>
<polygon fill="#000000" stroke="#000000" points="498.3632,-543.2179 506.7522,-536.7467 496.1588,-536.574 498.3632,-543.2179"/>
</g>
<!-- 11 -->
<g id="node12" class="node">
<title>11</title>
<ellipse fill="none" stroke="#000000" cx="449.1972" cy="-594" rx="42.4939" ry="18"/>
<text text-anchor="middle" x="449.1972" y="-590.3" font-family="Times,serif" font-size="14.00" fill="#000000">data_7</text>
</g>
<!-- 11&#45;&gt;15 -->
<g id="edge12" class="edge">
<title>11&#45;&gt;15</title>
<path fill="none" stroke="#000000" d="M471.0788,-578.5542C484.9082,-568.7923 503.0334,-555.998 518.5456,-545.0482"/>
<polygon fill="#000000" stroke="#000000" points="520.6995,-547.812 526.8508,-539.1857 516.6627,-542.0932 520.6995,-547.812"/>
</g>
<!-- 12 -->
<g id="node13" class="node">
<title>12</title>
<ellipse fill="none" stroke="#000000" cx="551.1972" cy="-594" rx="42.4939" ry="18"/>
<text text-anchor="middle" x="551.1972" y="-590.3" font-family="Times,serif" font-size="14.00" fill="#000000">data_8</text>
</g>
<!-- 12&#45;&gt;15 -->
<g id="edge13" class="edge">
<title>12&#45;&gt;15</title>
<path fill="none" stroke="#000000" d="M551.1972,-575.8314C551.1972,-568.131 551.1972,-558.9743 551.1972,-550.4166"/>
<polygon fill="#000000" stroke="#000000" points="554.6973,-550.4132 551.1972,-540.4133 547.6973,-550.4133 554.6973,-550.4132"/>
</g>
<!-- 13 -->
<g id="node14" class="node">
<title>13</title>
<ellipse fill="none" stroke="#000000" cx="653.1972" cy="-594" rx="42.4939" ry="18"/>
<text text-anchor="middle" x="653.1972" y="-590.3" font-family="Times,serif" font-size="14.00" fill="#000000">data_9</text>
</g>
<!-- 13&#45;&gt;15 -->
<g id="edge14" class="edge">
<title>13&#45;&gt;15</title>
<path fill="none" stroke="#000000" d="M631.3157,-578.5542C617.4863,-568.7923 599.3611,-555.998 583.8489,-545.0482"/>
<polygon fill="#000000" stroke="#000000" points="585.7318,-542.0932 575.5437,-539.1857 581.695,-547.812 585.7318,-542.0932"/>
</g>
<!-- 14 -->
<g id="node15" class="node">
<title>14</title>
<ellipse fill="none" stroke="#000000" cx="761.1972" cy="-594" rx="48.1917" ry="18"/>
<text text-anchor="middle" x="761.1972" y="-590.3" font-family="Times,serif" font-size="14.00" fill="#000000">data_10</text>
</g>
<!-- 14&#45;&gt;15 -->
<g id="edge15" class="edge">
<title>14&#45;&gt;15</title>
<path fill="none" stroke="#000000" d="M725.5736,-581.7862C692.3808,-570.4058 642.4456,-553.2852 604.5067,-540.2775"/>
<polygon fill="#000000" stroke="#000000" points="605.2383,-536.8284 594.6437,-536.8959 602.968,-543.45 605.2383,-536.8284"/>
</g>
<!-- 17 -->
<g id="node18" class="node">
<title>17</title>
<ellipse fill="none" stroke="#000000" cx="622.1972" cy="-450" rx="43.5923" ry="18"/>
<text text-anchor="middle" x="622.1972" y="-446.3" font-family="Times,serif" font-size="14.00" fill="#000000">conv_2</text>
</g>
<!-- 15&#45;&gt;17 -->
<g id="edge16" class="edge">
<title>15&#45;&gt;17</title>
<path fill="none" stroke="#000000" d="M568.7478,-504.2022C577.6486,-495.1761 588.5923,-484.0783 598.254,-474.2804"/>
<polygon fill="#000000" stroke="#000000" points="600.8081,-476.6751 605.3375,-467.0972 595.8239,-471.7601 600.8081,-476.6751"/>
</g>
<!-- 16 -->
<g id="node17" class="node">
<title>16</title>
<ellipse fill="none" stroke="#000000" cx="694.1972" cy="-522" rx="48.1917" ry="18"/>
<text text-anchor="middle" x="694.1972" y="-518.3" font-family="Times,serif" font-size="14.00" fill="#000000">data_11</text>
</g>
<!-- 16&#45;&gt;17 -->
<g id="edge17" class="edge">
<title>16&#45;&gt;17</title>
<path fill="none" stroke="#000000" d="M677.1342,-504.937C667.9882,-495.791 656.5625,-484.3652 646.5033,-474.3061"/>
<polygon fill="#000000" stroke="#000000" points="648.6837,-471.5367 639.1377,-466.9405 643.734,-476.4865 648.6837,-471.5367"/>
</g>
<!-- 19 -->
<g id="node20" class="node">
<title>19</title>
<ellipse fill="none" stroke="#000000" cx="677.1972" cy="-378" rx="43.5923" ry="18"/>
<text text-anchor="middle" x="677.1972" y="-374.3" font-family="Times,serif" font-size="14.00" fill="#000000">conv_3</text>
</g>
<!-- 17&#45;&gt;19 -->
<g id="edge18" class="edge">
<title>17&#45;&gt;19</title>
<path fill="none" stroke="#000000" d="M635.5112,-432.5708C642.1994,-423.8153 650.4292,-413.0418 657.8046,-403.3867"/>
<polygon fill="#000000" stroke="#000000" points="660.7168,-405.3401 664.0059,-395.2687 655.1541,-401.0908 660.7168,-405.3401"/>
</g>
<!-- 18 -->
<g id="node19" class="node">
<title>18</title>
<ellipse fill="none" stroke="#000000" cx="732.1972" cy="-450" rx="48.1917" ry="18"/>
<text text-anchor="middle" x="732.1972" y="-446.3" font-family="Times,serif" font-size="14.00" fill="#000000">data_12</text>
</g>
<!-- 18&#45;&gt;19 -->
<g id="edge19" class="edge">
<title>18&#45;&gt;19</title>
<path fill="none" stroke="#000000" d="M718.8833,-432.5708C712.1951,-423.8153 703.9652,-413.0418 696.5898,-403.3867"/>
<polygon fill="#000000" stroke="#000000" points="699.2404,-401.0908 690.3886,-395.2687 693.6777,-405.3401 699.2404,-401.0908"/>
</g>
<!-- 20 -->
<g id="node21" class="node">
<title>20</title>
<ellipse fill="none" stroke="#000000" cx="677.1972" cy="-306" rx="65.7887" ry="18"/>
<text text-anchor="middle" x="677.1972" y="-302.3" font-family="Times,serif" font-size="14.00" fill="#000000">max_pool_1</text>
</g>
<!-- 19&#45;&gt;20 -->
<g id="edge20" class="edge">
<title>19&#45;&gt;20</title>
<path fill="none" stroke="#000000" d="M677.1972,-359.8314C677.1972,-352.131 677.1972,-342.9743 677.1972,-334.4166"/>
<polygon fill="#000000" stroke="#000000" points="680.6973,-334.4132 677.1972,-324.4133 673.6973,-334.4133 680.6973,-334.4132"/>
</g>
<!-- 25 -->
<g id="node26" class="node">
<title>25</title>
<ellipse fill="none" stroke="#000000" cx="923.1972" cy="-234" rx="77.1866" ry="18"/>
<text text-anchor="middle" x="923.1972" y="-230.3" font-family="Times,serif" font-size="14.00" fill="#000000">batch_norm_2</text>
</g>
<!-- 20&#45;&gt;25 -->
<g id="edge21" class="edge">
<title>20&#45;&gt;25</title>
<path fill="none" stroke="#000000" d="M722.3174,-292.7941C762.5512,-281.0184 821.6711,-263.715 865.3648,-250.9266"/>
<polygon fill="#000000" stroke="#000000" points="866.3848,-254.2749 874.999,-248.1068 864.4184,-247.5568 866.3848,-254.2749"/>
</g>
<!-- 21 -->
<g id="node22" class="node">
<title>21</title>
<ellipse fill="none" stroke="#000000" cx="809.1972" cy="-306" rx="48.1917" ry="18"/>
<text text-anchor="middle" x="809.1972" y="-302.3" font-family="Times,serif" font-size="14.00" fill="#000000">data_13</text>
</g>
<!-- 21&#45;&gt;25 -->
<g id="edge22" class="edge">
<title>21&#45;&gt;25</title>
<path fill="none" stroke="#000000" d="M833.9335,-290.3771C849.5476,-280.5155 869.9778,-267.6122 887.3522,-256.639"/>
<polygon fill="#000000" stroke="#000000" points="889.5317,-259.4021 896.1176,-251.1029 885.7937,-253.4837 889.5317,-259.4021"/>
</g>
<!-- 22 -->
<g id="node23" class="node">
<title>22</title>
<ellipse fill="none" stroke="#000000" cx="923.1972" cy="-306" rx="48.1917" ry="18"/>
<text text-anchor="middle" x="923.1972" y="-302.3" font-family="Times,serif" font-size="14.00" fill="#000000">data_14</text>
</g>
<!-- 22&#45;&gt;25 -->
<g id="edge23" class="edge">
<title>22&#45;&gt;25</title>
<path fill="none" stroke="#000000" d="M923.1972,-287.8314C923.1972,-280.131 923.1972,-270.9743 923.1972,-262.4166"/>
<polygon fill="#000000" stroke="#000000" points="926.6973,-262.4132 923.1972,-252.4133 919.6973,-262.4133 926.6973,-262.4132"/>
</g>
<!-- 23 -->
<g id="node24" class="node">
<title>23</title>
<ellipse fill="none" stroke="#000000" cx="1037.1972" cy="-306" rx="48.1917" ry="18"/>
<text text-anchor="middle" x="1037.1972" y="-302.3" font-family="Times,serif" font-size="14.00" fill="#000000">data_15</text>
</g>
<!-- 23&#45;&gt;25 -->
<g id="edge24" class="edge">
<title>23&#45;&gt;25</title>
<path fill="none" stroke="#000000" d="M1012.4609,-290.3771C996.8469,-280.5155 976.4166,-267.6122 959.0423,-256.639"/>
<polygon fill="#000000" stroke="#000000" points="960.6008,-253.4837 950.2769,-251.1029 956.8628,-259.4021 960.6008,-253.4837"/>
</g>
<!-- 24 -->
<g id="node25" class="node">
<title>24</title>
<ellipse fill="none" stroke="#000000" cx="1151.1972" cy="-306" rx="48.1917" ry="18"/>
<text text-anchor="middle" x="1151.1972" y="-302.3" font-family="Times,serif" font-size="14.00" fill="#000000">data_16</text>
</g>
<!-- 24&#45;&gt;25 -->
<g id="edge25" class="edge">
<title>24&#45;&gt;25</title>
<path fill="none" stroke="#000000" d="M1114.3117,-294.3519C1077.7141,-282.7948 1021.1554,-264.9342 979.0495,-251.6376"/>
<polygon fill="#000000" stroke="#000000" points="980.0792,-248.2924 969.4893,-248.6186 977.9712,-254.9675 980.0792,-248.2924"/>
</g>
<!-- 26 -->
<g id="node27" class="node">
<title>26</title>
<ellipse fill="none" stroke="#000000" cx="923.1972" cy="-162" rx="46.2923" ry="18"/>
<text text-anchor="middle" x="923.1972" y="-158.3" font-family="Times,serif" font-size="14.00" fill="#000000">reorder</text>
</g>
<!-- 25&#45;&gt;26 -->
<g id="edge26" class="edge">
<title>25&#45;&gt;26</title>
<path fill="none" stroke="#000000" d="M923.1972,-215.8314C923.1972,-208.131 923.1972,-198.9743 923.1972,-190.4166"/>
<polygon fill="#000000" stroke="#000000" points="926.6973,-190.4132 923.1972,-180.4133 919.6973,-190.4133 926.6973,-190.4132"/>
</g>
<!-- 28 -->
<g id="node29" class="node">
<title>28</title>
<ellipse fill="none" stroke="#000000" cx="979.1972" cy="-90" rx="51.1914" ry="18"/>
<text text-anchor="middle" x="979.1972" y="-86.3" font-family="Times,serif" font-size="14.00" fill="#000000">mat_mul</text>
</g>
<!-- 26&#45;&gt;28 -->
<g id="edge27" class="edge">
<title>26&#45;&gt;28</title>
<path fill="none" stroke="#000000" d="M936.7533,-144.5708C943.513,-135.8797 951.8194,-125.2001 959.2862,-115.5998"/>
<polygon fill="#000000" stroke="#000000" points="962.1952,-117.5606 965.5719,-107.5182 956.6698,-113.263 962.1952,-117.5606"/>
</g>
<!-- 27 -->
<g id="node28" class="node">
<title>27</title>
<ellipse fill="none" stroke="#000000" cx="1035.1972" cy="-162" rx="48.1917" ry="18"/>
<text text-anchor="middle" x="1035.1972" y="-158.3" font-family="Times,serif" font-size="14.00" fill="#000000">data_17</text>
</g>
<!-- 27&#45;&gt;28 -->
<g id="edge28" class="edge">
<title>27&#45;&gt;28</title>
<path fill="none" stroke="#000000" d="M1021.6412,-144.5708C1014.8815,-135.8797 1006.5751,-125.2001 999.1082,-115.5998"/>
<polygon fill="#000000" stroke="#000000" points="1001.7247,-113.263 992.8225,-107.5182 996.1992,-117.5606 1001.7247,-113.263"/>
</g>
<!-- 30 -->
<g id="node31" class="node">
<title>30</title>
<ellipse fill="none" stroke="#000000" cx="1037.1972" cy="-18" rx="61.99" ry="18"/>
<text text-anchor="middle" x="1037.1972" y="-14.3" font-family="Times,serif" font-size="14.00" fill="#000000">mat_mul_1</text>
</g>
<!-- 28&#45;&gt;30 -->
<g id="edge29" class="edge">
<title>28&#45;&gt;30</title>
<path fill="none" stroke="#000000" d="M993.2374,-72.5708C1000.1867,-63.9441 1008.7142,-53.3582 1016.4031,-43.8134"/>
<polygon fill="#000000" stroke="#000000" points="1019.3357,-45.7521 1022.8834,-35.7689 1013.8844,-41.3608 1019.3357,-45.7521"/>
</g>
<!-- 29 -->
<g id="node30" class="node">
<title>29</title>
<ellipse fill="none" stroke="#000000" cx="1096.1972" cy="-90" rx="48.1917" ry="18"/>
<text text-anchor="middle" x="1096.1972" y="-86.3" font-family="Times,serif" font-size="14.00" fill="#000000">data_18</text>
</g>
<!-- 29&#45;&gt;30 -->
<g id="edge30" class="edge">
<title>29&#45;&gt;30</title>
<path fill="none" stroke="#000000" d="M1081.915,-72.5708C1074.7212,-63.7919 1065.8648,-52.9841 1057.9368,-43.3093"/>
<polygon fill="#000000" stroke="#000000" points="1060.5979,-41.0347 1051.5525,-35.5182 1055.1835,-45.4714 1060.5979,-41.0347"/>
</g>
</g>
</svg>
