<?xml version="1.0" encoding="UTF-8" standalone="no"?>
<!DOCTYPE svg PUBLIC "-//W3C//DTD SVG 1.1//EN"
 "http://www.w3.org/Graphics/SVG/1.1/DTD/svg11.dtd">
<!-- Generated by graphviz version 2.40.1 (20161225.0304)
 -->
<!-- Title: G Pages: 1 -->
<svg width="857pt" height="1196pt"
 viewBox="0.00 0.00 857.19 1196.00" xmlns="http://www.w3.org/2000/svg" xmlns:xlink="http://www.w3.org/1999/xlink">
<g id="graph0" class="graph" transform="scale(1 1) rotate(0) translate(4 1192)">
<title>G</title>
<polygon fill="#ffffff" stroke="transparent" points="-4,4 -4,-1192 853.1926,-1192 853.1926,4 -4,4"/>
<!-- 0 -->
<g id="node1" class="node">
<title>0</title>
<ellipse fill="none" stroke="#000000" cx="35.0969" cy="-1170" rx="35.194" ry="18"/>
<text text-anchor="middle" x="35.0969" y="-1166.3" font-family="Times,serif" font-size="14.00" fill="#000000">input</text>
</g>
<!-- 2 -->
<g id="node3" class="node">
<title>2</title>
<ellipse fill="none" stroke="#000000" cx="77.0969" cy="-1098" rx="74.9875" ry="18"/>
<text text-anchor="middle" x="77.0969" y="-1094.3" font-family="Times,serif" font-size="14.00" fill="#000000">conv0_stack0</text>
</g>
<!-- 0&#45;&gt;2 -->
<g id="edge1" class="edge">
<title>0&#45;&gt;2</title>
<path fill="none" stroke="#000000" d="M45.2639,-1152.5708C50.1073,-1144.2679 56.0093,-1134.1502 61.4096,-1124.8925"/>
<polygon fill="#000000" stroke="#000000" points="64.5693,-1126.422 66.5849,-1116.0206 58.5229,-1122.8948 64.5693,-1126.422"/>
</g>
<!-- 1 -->
<g id="node2" class="node">
<title>1</title>
<ellipse fill="none" stroke="#000000" cx="119.0969" cy="-1170" rx="31.3957" ry="18"/>
<text text-anchor="middle" x="119.0969" y="-1166.3" font-family="Times,serif" font-size="14.00" fill="#000000">data</text>
</g>
<!-- 1&#45;&gt;2 -->
<g id="edge2" class="edge">
<title>1&#45;&gt;2</title>
<path fill="none" stroke="#000000" d="M109.1435,-1152.937C104.2169,-1144.4914 98.1563,-1134.1019 92.6366,-1124.6396"/>
<polygon fill="#000000" stroke="#000000" points="95.6269,-1122.8195 87.565,-1115.9453 89.5805,-1126.3466 95.6269,-1122.8195"/>
</g>
<!-- 3 -->
<g id="node4" class="node">
<title>3</title>
<ellipse fill="none" stroke="#000000" cx="77.0969" cy="-1026" rx="66.0889" ry="18"/>
<text text-anchor="middle" x="77.0969" y="-1022.3" font-family="Times,serif" font-size="14.00" fill="#000000">pool_stack0</text>
</g>
<!-- 2&#45;&gt;3 -->
<g id="edge3" class="edge">
<title>2&#45;&gt;3</title>
<path fill="none" stroke="#000000" d="M77.0969,-1079.8314C77.0969,-1072.131 77.0969,-1062.9743 77.0969,-1054.4166"/>
<polygon fill="#000000" stroke="#000000" points="80.597,-1054.4132 77.0969,-1044.4133 73.597,-1054.4133 80.597,-1054.4132"/>
</g>
<!-- 5 -->
<g id="node6" class="node">
<title>5</title>
<ellipse fill="none" stroke="#000000" cx="140.0969" cy="-954" rx="74.9875" ry="18"/>
<text text-anchor="middle" x="140.0969" y="-950.3" font-family="Times,serif" font-size="14.00" fill="#000000">conv0_stack1</text>
</g>
<!-- 3&#45;&gt;5 -->
<g id="edge4" class="edge">
<title>3&#45;&gt;5</title>
<path fill="none" stroke="#000000" d="M92.6699,-1008.2022C100.2421,-999.5483 109.4807,-988.99 117.7854,-979.4988"/>
<polygon fill="#000000" stroke="#000000" points="120.5336,-981.6731 124.4847,-971.8425 115.2656,-977.0636 120.5336,-981.6731"/>
</g>
<!-- 4 -->
<g id="node5" class="node">
<title>4</title>
<ellipse fill="none" stroke="#000000" cx="204.0969" cy="-1026" rx="42.4939" ry="18"/>
<text text-anchor="middle" x="204.0969" y="-1022.3" font-family="Times,serif" font-size="14.00" fill="#000000">data_1</text>
</g>
<!-- 4&#45;&gt;5 -->
<g id="edge5" class="edge">
<title>4&#45;&gt;5</title>
<path fill="none" stroke="#000000" d="M188.9298,-1008.937C181.0547,-1000.0775 171.2782,-989.0789 162.5462,-979.2554"/>
<polygon fill="#000000" stroke="#000000" points="165.0831,-976.8413 155.8235,-971.6924 159.8512,-981.4918 165.0831,-976.8413"/>
</g>
<!-- 7 -->
<g id="node8" class="node">
<title>7</title>
<ellipse fill="none" stroke="#000000" cx="207.0969" cy="-882" rx="74.9875" ry="18"/>
<text text-anchor="middle" x="207.0969" y="-878.3" font-family="Times,serif" font-size="14.00" fill="#000000">conv1_stack1</text>
</g>
<!-- 5&#45;&gt;7 -->
<g id="edge6" class="edge">
<title>5&#45;&gt;7</title>
<path fill="none" stroke="#000000" d="M156.6587,-936.2022C164.8534,-927.396 174.8831,-916.6179 183.834,-906.9989"/>
<polygon fill="#000000" stroke="#000000" points="186.4755,-909.2981 190.7256,-899.593 181.351,-904.5294 186.4755,-909.2981"/>
</g>
<!-- 6 -->
<g id="node7" class="node">
<title>6</title>
<ellipse fill="none" stroke="#000000" cx="275.0969" cy="-954" rx="42.4939" ry="18"/>
<text text-anchor="middle" x="275.0969" y="-950.3" font-family="Times,serif" font-size="14.00" fill="#000000">data_2</text>
</g>
<!-- 6&#45;&gt;7 -->
<g id="edge7" class="edge">
<title>6&#45;&gt;7</title>
<path fill="none" stroke="#000000" d="M259.3254,-937.3008C250.8214,-928.2965 240.1573,-917.0052 230.6862,-906.9769"/>
<polygon fill="#000000" stroke="#000000" points="233.1424,-904.4801 223.7316,-899.6132 228.0533,-909.2865 233.1424,-904.4801"/>
</g>
<!-- 8 -->
<g id="node9" class="node">
<title>8</title>
<ellipse fill="none" stroke="#000000" cx="207.0969" cy="-810" rx="66.0889" ry="18"/>
<text text-anchor="middle" x="207.0969" y="-806.3" font-family="Times,serif" font-size="14.00" fill="#000000">pool_stack1</text>
</g>
<!-- 7&#45;&gt;8 -->
<g id="edge8" class="edge">
<title>7&#45;&gt;8</title>
<path fill="none" stroke="#000000" d="M207.0969,-863.8314C207.0969,-856.131 207.0969,-846.9743 207.0969,-838.4166"/>
<polygon fill="#000000" stroke="#000000" points="210.597,-838.4132 207.0969,-828.4133 203.597,-838.4133 210.597,-838.4132"/>
</g>
<!-- 10 -->
<g id="node11" class="node">
<title>10</title>
<ellipse fill="none" stroke="#000000" cx="270.0969" cy="-738" rx="74.9875" ry="18"/>
<text text-anchor="middle" x="270.0969" y="-734.3" font-family="Times,serif" font-size="14.00" fill="#000000">conv0_stack2</text>
</g>
<!-- 8&#45;&gt;10 -->
<g id="edge9" class="edge">
<title>8&#45;&gt;10</title>
<path fill="none" stroke="#000000" d="M222.6699,-792.2022C230.2421,-783.5483 239.4807,-772.99 247.7854,-763.4988"/>
<polygon fill="#000000" stroke="#000000" points="250.5336,-765.6731 254.4847,-755.8425 245.2656,-761.0636 250.5336,-765.6731"/>
</g>
<!-- 9 -->
<g id="node10" class="node">
<title>9</title>
<ellipse fill="none" stroke="#000000" cx="334.0969" cy="-810" rx="42.4939" ry="18"/>
<text text-anchor="middle" x="334.0969" y="-806.3" font-family="Times,serif" font-size="14.00" fill="#000000">data_3</text>
</g>
<!-- 9&#45;&gt;10 -->
<g id="edge10" class="edge">
<title>9&#45;&gt;10</title>
<path fill="none" stroke="#000000" d="M318.9298,-792.937C311.0547,-784.0775 301.2782,-773.0789 292.5462,-763.2554"/>
<polygon fill="#000000" stroke="#000000" points="295.0831,-760.8413 285.8235,-755.6924 289.8512,-765.4918 295.0831,-760.8413"/>
</g>
<!-- 12 -->
<g id="node13" class="node">
<title>12</title>
<ellipse fill="none" stroke="#000000" cx="337.0969" cy="-666" rx="74.9875" ry="18"/>
<text text-anchor="middle" x="337.0969" y="-662.3" font-family="Times,serif" font-size="14.00" fill="#000000">conv1_stack2</text>
</g>
<!-- 10&#45;&gt;12 -->
<g id="edge11" class="edge">
<title>10&#45;&gt;12</title>
<path fill="none" stroke="#000000" d="M286.6587,-720.2022C294.8534,-711.396 304.8831,-700.6179 313.834,-690.9989"/>
<polygon fill="#000000" stroke="#000000" points="316.4755,-693.2981 320.7256,-683.593 311.351,-688.5294 316.4755,-693.2981"/>
</g>
<!-- 11 -->
<g id="node12" class="node">
<title>11</title>
<ellipse fill="none" stroke="#000000" cx="405.0969" cy="-738" rx="42.4939" ry="18"/>
<text text-anchor="middle" x="405.0969" y="-734.3" font-family="Times,serif" font-size="14.00" fill="#000000">data_4</text>
</g>
<!-- 11&#45;&gt;12 -->
<g id="edge12" class="edge">
<title>11&#45;&gt;12</title>
<path fill="none" stroke="#000000" d="M389.3254,-721.3008C380.8214,-712.2965 370.1573,-701.0052 360.6862,-690.9769"/>
<polygon fill="#000000" stroke="#000000" points="363.1424,-688.4801 353.7316,-683.6132 358.0533,-693.2865 363.1424,-688.4801"/>
</g>
<!-- 13 -->
<g id="node14" class="node">
<title>13</title>
<ellipse fill="none" stroke="#000000" cx="337.0969" cy="-594" rx="66.0889" ry="18"/>
<text text-anchor="middle" x="337.0969" y="-590.3" font-family="Times,serif" font-size="14.00" fill="#000000">pool_stack2</text>
</g>
<!-- 12&#45;&gt;13 -->
<g id="edge13" class="edge">
<title>12&#45;&gt;13</title>
<path fill="none" stroke="#000000" d="M337.0969,-647.8314C337.0969,-640.131 337.0969,-630.9743 337.0969,-622.4166"/>
<polygon fill="#000000" stroke="#000000" points="340.597,-622.4132 337.0969,-612.4133 333.597,-622.4133 340.597,-622.4132"/>
</g>
<!-- 15 -->
<g id="node16" class="node">
<title>15</title>
<ellipse fill="none" stroke="#000000" cx="400.0969" cy="-522" rx="74.9875" ry="18"/>
<text text-anchor="middle" x="400.0969" y="-518.3" font-family="Times,serif" font-size="14.00" fill="#000000">conv0_stack3</text>
</g>
<!-- 13&#45;&gt;15 -->
<g id="edge14" class="edge">
<title>13&#45;&gt;15</title>
<path fill="none" stroke="#000000" d="M352.6699,-576.2022C360.2421,-567.5483 369.4807,-556.99 377.7854,-547.4988"/>
<polygon fill="#000000" stroke="#000000" points="380.5336,-549.6731 384.4847,-539.8425 375.2656,-545.0636 380.5336,-549.6731"/>
</g>
<!-- 14 -->
<g id="node15" class="node">
<title>14</title>
<ellipse fill="none" stroke="#000000" cx="464.0969" cy="-594" rx="42.4939" ry="18"/>
<text text-anchor="middle" x="464.0969" y="-590.3" font-family="Times,serif" font-size="14.00" fill="#000000">data_5</text>
</g>
<!-- 14&#45;&gt;15 -->
<g id="edge15" class="edge">
<title>14&#45;&gt;15</title>
<path fill="none" stroke="#000000" d="M448.9298,-576.937C441.0547,-568.0775 431.2782,-557.0789 422.5462,-547.2554"/>
<polygon fill="#000000" stroke="#000000" points="425.0831,-544.8413 415.8235,-539.6924 419.8512,-549.4918 425.0831,-544.8413"/>
</g>
<!-- 17 -->
<g id="node18" class="node">
<title>17</title>
<ellipse fill="none" stroke="#000000" cx="467.0969" cy="-450" rx="74.9875" ry="18"/>
<text text-anchor="middle" x="467.0969" y="-446.3" font-family="Times,serif" font-size="14.00" fill="#000000">conv1_stack3</text>
</g>
<!-- 15&#45;&gt;17 -->
<g id="edge16" class="edge">
<title>15&#45;&gt;17</title>
<path fill="none" stroke="#000000" d="M416.6587,-504.2022C424.8534,-495.396 434.8831,-484.6179 443.834,-474.9989"/>
<polygon fill="#000000" stroke="#000000" points="446.4755,-477.2981 450.7256,-467.593 441.351,-472.5294 446.4755,-477.2981"/>
</g>
<!-- 16 -->
<g id="node17" class="node">
<title>16</title>
<ellipse fill="none" stroke="#000000" cx="535.0969" cy="-522" rx="42.4939" ry="18"/>
<text text-anchor="middle" x="535.0969" y="-518.3" font-family="Times,serif" font-size="14.00" fill="#000000">data_6</text>
</g>
<!-- 16&#45;&gt;17 -->
<g id="edge17" class="edge">
<title>16&#45;&gt;17</title>
<path fill="none" stroke="#000000" d="M519.3254,-505.3008C510.8214,-496.2965 500.1573,-485.0052 490.6862,-474.9769"/>
<polygon fill="#000000" stroke="#000000" points="493.1424,-472.4801 483.7316,-467.6132 488.0533,-477.2865 493.1424,-472.4801"/>
</g>
<!-- 18 -->
<g id="node19" class="node">
<title>18</title>
<ellipse fill="none" stroke="#000000" cx="467.0969" cy="-378" rx="66.0889" ry="18"/>
<text text-anchor="middle" x="467.0969" y="-374.3" font-family="Times,serif" font-size="14.00" fill="#000000">pool_stack3</text>
</g>
<!-- 17&#45;&gt;18 -->
<g id="edge18" class="edge">
<title>17&#45;&gt;18</title>
<path fill="none" stroke="#000000" d="M467.0969,-431.8314C467.0969,-424.131 467.0969,-414.9743 467.0969,-406.4166"/>
<polygon fill="#000000" stroke="#000000" points="470.597,-406.4132 467.0969,-396.4133 463.597,-406.4133 470.597,-406.4132"/>
</g>
<!-- 20 -->
<g id="node21" class="node">
<title>20</title>
<ellipse fill="none" stroke="#000000" cx="530.0969" cy="-306" rx="74.9875" ry="18"/>
<text text-anchor="middle" x="530.0969" y="-302.3" font-family="Times,serif" font-size="14.00" fill="#000000">conv0_stack4</text>
</g>
<!-- 18&#45;&gt;20 -->
<g id="edge19" class="edge">
<title>18&#45;&gt;20</title>
<path fill="none" stroke="#000000" d="M482.6699,-360.2022C490.2421,-351.5483 499.4807,-340.99 507.7854,-331.4988"/>
<polygon fill="#000000" stroke="#000000" points="510.5336,-333.6731 514.4847,-323.8425 505.2656,-329.0636 510.5336,-333.6731"/>
</g>
<!-- 19 -->
<g id="node20" class="node">
<title>19</title>
<ellipse fill="none" stroke="#000000" cx="594.0969" cy="-378" rx="42.4939" ry="18"/>
<text text-anchor="middle" x="594.0969" y="-374.3" font-family="Times,serif" font-size="14.00" fill="#000000">data_7</text>
</g>
<!-- 19&#45;&gt;20 -->
<g id="edge20" class="edge">
<title>19&#45;&gt;20</title>
<path fill="none" stroke="#000000" d="M578.9298,-360.937C571.0547,-352.0775 561.2782,-341.0789 552.5462,-331.2554"/>
<polygon fill="#000000" stroke="#000000" points="555.0831,-328.8413 545.8235,-323.6924 549.8512,-333.4918 555.0831,-328.8413"/>
</g>
<!-- 22 -->
<g id="node23" class="node">
<title>22</title>
<ellipse fill="none" stroke="#000000" cx="597.0969" cy="-234" rx="85.2851" ry="18"/>
<text text-anchor="middle" x="597.0969" y="-230.3" font-family="Times,serif" font-size="14.00" fill="#000000">conv0_stack4_1</text>
</g>
<!-- 20&#45;&gt;22 -->
<g id="edge21" class="edge">
<title>20&#45;&gt;22</title>
<path fill="none" stroke="#000000" d="M546.6587,-288.2022C554.7922,-279.4617 564.7335,-268.7786 573.6335,-259.2144"/>
<polygon fill="#000000" stroke="#000000" points="576.2433,-261.5476 580.4934,-251.8425 571.1188,-256.7789 576.2433,-261.5476"/>
</g>
<!-- 21 -->
<g id="node22" class="node">
<title>21</title>
<ellipse fill="none" stroke="#000000" cx="665.0969" cy="-306" rx="42.4939" ry="18"/>
<text text-anchor="middle" x="665.0969" y="-302.3" font-family="Times,serif" font-size="14.00" fill="#000000">data_8</text>
</g>
<!-- 21&#45;&gt;22 -->
<g id="edge22" class="edge">
<title>21&#45;&gt;22</title>
<path fill="none" stroke="#000000" d="M649.3254,-289.3008C640.8839,-280.3627 630.314,-269.1711 620.8953,-259.1983"/>
<polygon fill="#000000" stroke="#000000" points="623.3822,-256.7341 613.9714,-251.8671 618.2931,-261.5405 623.3822,-256.7341"/>
</g>
<!-- 23 -->
<g id="node24" class="node">
<title>23</title>
<ellipse fill="none" stroke="#000000" cx="597.0969" cy="-162" rx="66.0889" ry="18"/>
<text text-anchor="middle" x="597.0969" y="-158.3" font-family="Times,serif" font-size="14.00" fill="#000000">pool_stack4</text>
</g>
<!-- 22&#45;&gt;23 -->
<g id="edge23" class="edge">
<title>22&#45;&gt;23</title>
<path fill="none" stroke="#000000" d="M597.0969,-215.8314C597.0969,-208.131 597.0969,-198.9743 597.0969,-190.4166"/>
<polygon fill="#000000" stroke="#000000" points="600.597,-190.4132 597.0969,-180.4133 593.597,-190.4133 600.597,-190.4132"/>
</g>
<!-- 25 -->
<g id="node26" class="node">
<title>25</title>
<ellipse fill="none" stroke="#000000" cx="660.0969" cy="-90" rx="74.9875" ry="18"/>
<text text-anchor="middle" x="660.0969" y="-86.3" font-family="Times,serif" font-size="14.00" fill="#000000">conv0_stack5</text>
</g>
<!-- 23&#45;&gt;25 -->
<g id="edge24" class="edge">
<title>23&#45;&gt;25</title>
<path fill="none" stroke="#000000" d="M612.6699,-144.2022C620.2421,-135.5483 629.4807,-124.99 637.7854,-115.4988"/>
<polygon fill="#000000" stroke="#000000" points="640.5336,-117.6731 644.4847,-107.8425 635.2656,-113.0636 640.5336,-117.6731"/>
</g>
<!-- 24 -->
<g id="node25" class="node">
<title>24</title>
<ellipse fill="none" stroke="#000000" cx="724.0969" cy="-162" rx="42.4939" ry="18"/>
<text text-anchor="middle" x="724.0969" y="-158.3" font-family="Times,serif" font-size="14.00" fill="#000000">data_9</text>
</g>
<!-- 24&#45;&gt;25 -->
<g id="edge25" class="edge">
<title>24&#45;&gt;25</title>
<path fill="none" stroke="#000000" d="M708.9298,-144.937C701.0547,-136.0775 691.2782,-125.0789 682.5462,-115.2554"/>
<polygon fill="#000000" stroke="#000000" points="685.0831,-112.8413 675.8235,-107.6924 679.8512,-117.4918 685.0831,-112.8413"/>
</g>
<!-- 27 -->
<g id="node28" class="node">
<title>27</title>
<ellipse fill="none" stroke="#000000" cx="730.0969" cy="-18" rx="74.9875" ry="18"/>
<text text-anchor="middle" x="730.0969" y="-14.3" font-family="Times,serif" font-size="14.00" fill="#000000">conv0_stack6</text>
</g>
<!-- 25&#45;&gt;27 -->
<g id="edge26" class="edge">
<title>25&#45;&gt;27</title>
<path fill="none" stroke="#000000" d="M677.4003,-72.2022C685.9619,-63.396 696.4406,-52.6179 705.7924,-42.9989"/>
<polygon fill="#000000" stroke="#000000" points="708.5312,-45.2028 712.9926,-35.593 703.5122,-40.3232 708.5312,-45.2028"/>
</g>
<!-- 26 -->
<g id="node27" class="node">
<title>26</title>
<ellipse fill="none" stroke="#000000" cx="801.0969" cy="-90" rx="48.1917" ry="18"/>
<text text-anchor="middle" x="801.0969" y="-86.3" font-family="Times,serif" font-size="14.00" fill="#000000">data_10</text>
</g>
<!-- 26&#45;&gt;27 -->
<g id="edge27" class="edge">
<title>26&#45;&gt;27</title>
<path fill="none" stroke="#000000" d="M784.2709,-72.937C775.4479,-63.9898 764.4736,-52.8609 754.7142,-42.964"/>
<polygon fill="#000000" stroke="#000000" points="757.0572,-40.3553 747.5436,-35.6924 752.0729,-45.2703 757.0572,-40.3553"/>
</g>
</g>
</svg>
