<?xml version="1.0" encoding="UTF-8" standalone="no"?>
<!DOCTYPE svg PUBLIC "-//W3C//DTD SVG 1.1//EN"
 "http://www.w3.org/Graphics/SVG/1.1/DTD/svg11.dtd">
<!-- Generated by graphviz version 2.40.1 (20161225.0304)
 -->
<!-- Title: G Pages: 1 -->
<svg width="1417pt" height="1772pt"
 viewBox="0.00 0.00 1417.19 1772.00" xmlns="http://www.w3.org/2000/svg" xmlns:xlink="http://www.w3.org/1999/xlink">
<g id="graph0" class="graph" transform="scale(1 1) rotate(0) translate(4 1768)">
<title>G</title>
<polygon fill="#ffffff" stroke="transparent" points="-4,4 -4,-1768 1413.1926,-1768 1413.1926,4 -4,4"/>
<!-- 0 -->
<g id="node1" class="node">
<title>0</title>
<ellipse fill="none" stroke="#000000" cx="35.0969" cy="-1746" rx="35.194" ry="18"/>
<text text-anchor="middle" x="35.0969" y="-1742.3" font-family="Times,serif" font-size="14.00" fill="#000000">input</text>
</g>
<!-- 2 -->
<g id="node3" class="node">
<title>2</title>
<ellipse fill="none" stroke="#000000" cx="77.0969" cy="-1674" rx="74.9875" ry="18"/>
<text text-anchor="middle" x="77.0969" y="-1670.3" font-family="Times,serif" font-size="14.00" fill="#000000">conv0_stack0</text>
</g>
<!-- 0&#45;&gt;2 -->
<g id="edge1" class="edge">
<title>0&#45;&gt;2</title>
<path fill="none" stroke="#000000" d="M45.2639,-1728.5708C50.1073,-1720.2679 56.0093,-1710.1502 61.4096,-1700.8925"/>
<polygon fill="#000000" stroke="#000000" points="64.5693,-1702.422 66.5849,-1692.0206 58.5229,-1698.8948 64.5693,-1702.422"/>
</g>
<!-- 1 -->
<g id="node2" class="node">
<title>1</title>
<ellipse fill="none" stroke="#000000" cx="119.0969" cy="-1746" rx="31.3957" ry="18"/>
<text text-anchor="middle" x="119.0969" y="-1742.3" font-family="Times,serif" font-size="14.00" fill="#000000">data</text>
</g>
<!-- 1&#45;&gt;2 -->
<g id="edge2" class="edge">
<title>1&#45;&gt;2</title>
<path fill="none" stroke="#000000" d="M109.1435,-1728.937C104.2169,-1720.4914 98.1563,-1710.1019 92.6366,-1700.6396"/>
<polygon fill="#000000" stroke="#000000" points="95.6269,-1698.8195 87.565,-1691.9453 89.5805,-1702.3466 95.6269,-1698.8195"/>
</g>
<!-- 3 -->
<g id="node4" class="node">
<title>3</title>
<ellipse fill="none" stroke="#000000" cx="77.0969" cy="-1602" rx="66.0889" ry="18"/>
<text text-anchor="middle" x="77.0969" y="-1598.3" font-family="Times,serif" font-size="14.00" fill="#000000">pool_stack0</text>
</g>
<!-- 2&#45;&gt;3 -->
<g id="edge3" class="edge">
<title>2&#45;&gt;3</title>
<path fill="none" stroke="#000000" d="M77.0969,-1655.8314C77.0969,-1648.131 77.0969,-1638.9743 77.0969,-1630.4166"/>
<polygon fill="#000000" stroke="#000000" points="80.597,-1630.4132 77.0969,-1620.4133 73.597,-1630.4133 80.597,-1630.4132"/>
</g>
<!-- 5 -->
<g id="node6" class="node">
<title>5</title>
<ellipse fill="none" stroke="#000000" cx="140.0969" cy="-1530" rx="74.9875" ry="18"/>
<text text-anchor="middle" x="140.0969" y="-1526.3" font-family="Times,serif" font-size="14.00" fill="#000000">conv0_stack1</text>
</g>
<!-- 3&#45;&gt;5 -->
<g id="edge4" class="edge">
<title>3&#45;&gt;5</title>
<path fill="none" stroke="#000000" d="M92.6699,-1584.2022C100.2421,-1575.5483 109.4807,-1564.99 117.7854,-1555.4988"/>
<polygon fill="#000000" stroke="#000000" points="120.5336,-1557.6731 124.4847,-1547.8425 115.2656,-1553.0636 120.5336,-1557.6731"/>
</g>
<!-- 4 -->
<g id="node5" class="node">
<title>4</title>
<ellipse fill="none" stroke="#000000" cx="204.0969" cy="-1602" rx="42.4939" ry="18"/>
<text text-anchor="middle" x="204.0969" y="-1598.3" font-family="Times,serif" font-size="14.00" fill="#000000">data_1</text>
</g>
<!-- 4&#45;&gt;5 -->
<g id="edge5" class="edge">
<title>4&#45;&gt;5</title>
<path fill="none" stroke="#000000" d="M188.9298,-1584.937C181.0547,-1576.0775 171.2782,-1565.0789 162.5462,-1555.2554"/>
<polygon fill="#000000" stroke="#000000" points="165.0831,-1552.8413 155.8235,-1547.6924 159.8512,-1557.4918 165.0831,-1552.8413"/>
</g>
<!-- 7 -->
<g id="node8" class="node">
<title>7</title>
<ellipse fill="none" stroke="#000000" cx="207.0969" cy="-1458" rx="74.9875" ry="18"/>
<text text-anchor="middle" x="207.0969" y="-1454.3" font-family="Times,serif" font-size="14.00" fill="#000000">conv1_stack1</text>
</g>
<!-- 5&#45;&gt;7 -->
<g id="edge6" class="edge">
<title>5&#45;&gt;7</title>
<path fill="none" stroke="#000000" d="M156.6587,-1512.2022C164.8534,-1503.396 174.8831,-1492.6179 183.834,-1482.9989"/>
<polygon fill="#000000" stroke="#000000" points="186.4755,-1485.2981 190.7256,-1475.593 181.351,-1480.5294 186.4755,-1485.2981"/>
</g>
<!-- 6 -->
<g id="node7" class="node">
<title>6</title>
<ellipse fill="none" stroke="#000000" cx="275.0969" cy="-1530" rx="42.4939" ry="18"/>
<text text-anchor="middle" x="275.0969" y="-1526.3" font-family="Times,serif" font-size="14.00" fill="#000000">data_2</text>
</g>
<!-- 6&#45;&gt;7 -->
<g id="edge7" class="edge">
<title>6&#45;&gt;7</title>
<path fill="none" stroke="#000000" d="M259.3254,-1513.3008C250.8214,-1504.2965 240.1573,-1493.0052 230.6862,-1482.9769"/>
<polygon fill="#000000" stroke="#000000" points="233.1424,-1480.4801 223.7316,-1475.6132 228.0533,-1485.2865 233.1424,-1480.4801"/>
</g>
<!-- 9 -->
<g id="node10" class="node">
<title>9</title>
<ellipse fill="none" stroke="#000000" cx="274.0969" cy="-1386" rx="74.9875" ry="18"/>
<text text-anchor="middle" x="274.0969" y="-1382.3" font-family="Times,serif" font-size="14.00" fill="#000000">conv2_stack1</text>
</g>
<!-- 7&#45;&gt;9 -->
<g id="edge8" class="edge">
<title>7&#45;&gt;9</title>
<path fill="none" stroke="#000000" d="M223.6587,-1440.2022C231.8534,-1431.396 241.8831,-1420.6179 250.834,-1410.9989"/>
<polygon fill="#000000" stroke="#000000" points="253.4755,-1413.2981 257.7256,-1403.593 248.351,-1408.5294 253.4755,-1413.2981"/>
</g>
<!-- 8 -->
<g id="node9" class="node">
<title>8</title>
<ellipse fill="none" stroke="#000000" cx="342.0969" cy="-1458" rx="42.4939" ry="18"/>
<text text-anchor="middle" x="342.0969" y="-1454.3" font-family="Times,serif" font-size="14.00" fill="#000000">data_3</text>
</g>
<!-- 8&#45;&gt;9 -->
<g id="edge9" class="edge">
<title>8&#45;&gt;9</title>
<path fill="none" stroke="#000000" d="M326.3254,-1441.3008C317.8214,-1432.2965 307.1573,-1421.0052 297.6862,-1410.9769"/>
<polygon fill="#000000" stroke="#000000" points="300.1424,-1408.4801 290.7316,-1403.6132 295.0533,-1413.2865 300.1424,-1408.4801"/>
</g>
<!-- 11 -->
<g id="node12" class="node">
<title>11</title>
<ellipse fill="none" stroke="#000000" cx="341.0969" cy="-1314" rx="74.9875" ry="18"/>
<text text-anchor="middle" x="341.0969" y="-1310.3" font-family="Times,serif" font-size="14.00" fill="#000000">conv3_stack1</text>
</g>
<!-- 9&#45;&gt;11 -->
<g id="edge10" class="edge">
<title>9&#45;&gt;11</title>
<path fill="none" stroke="#000000" d="M290.6587,-1368.2022C298.8534,-1359.396 308.8831,-1348.6179 317.834,-1338.9989"/>
<polygon fill="#000000" stroke="#000000" points="320.4755,-1341.2981 324.7256,-1331.593 315.351,-1336.5294 320.4755,-1341.2981"/>
</g>
<!-- 10 -->
<g id="node11" class="node">
<title>10</title>
<ellipse fill="none" stroke="#000000" cx="409.0969" cy="-1386" rx="42.4939" ry="18"/>
<text text-anchor="middle" x="409.0969" y="-1382.3" font-family="Times,serif" font-size="14.00" fill="#000000">data_4</text>
</g>
<!-- 10&#45;&gt;11 -->
<g id="edge11" class="edge">
<title>10&#45;&gt;11</title>
<path fill="none" stroke="#000000" d="M393.3254,-1369.3008C384.8214,-1360.2965 374.1573,-1349.0052 364.6862,-1338.9769"/>
<polygon fill="#000000" stroke="#000000" points="367.1424,-1336.4801 357.7316,-1331.6132 362.0533,-1341.2865 367.1424,-1336.4801"/>
</g>
<!-- 12 -->
<g id="node13" class="node">
<title>12</title>
<ellipse fill="none" stroke="#000000" cx="341.0969" cy="-1242" rx="66.0889" ry="18"/>
<text text-anchor="middle" x="341.0969" y="-1238.3" font-family="Times,serif" font-size="14.00" fill="#000000">pool_stack1</text>
</g>
<!-- 11&#45;&gt;12 -->
<g id="edge12" class="edge">
<title>11&#45;&gt;12</title>
<path fill="none" stroke="#000000" d="M341.0969,-1295.8314C341.0969,-1288.131 341.0969,-1278.9743 341.0969,-1270.4166"/>
<polygon fill="#000000" stroke="#000000" points="344.597,-1270.4132 341.0969,-1260.4133 337.597,-1270.4133 344.597,-1270.4132"/>
</g>
<!-- 14 -->
<g id="node15" class="node">
<title>14</title>
<ellipse fill="none" stroke="#000000" cx="404.0969" cy="-1170" rx="74.9875" ry="18"/>
<text text-anchor="middle" x="404.0969" y="-1166.3" font-family="Times,serif" font-size="14.00" fill="#000000">conv0_stack2</text>
</g>
<!-- 12&#45;&gt;14 -->
<g id="edge13" class="edge">
<title>12&#45;&gt;14</title>
<path fill="none" stroke="#000000" d="M356.6699,-1224.2022C364.2421,-1215.5483 373.4807,-1204.99 381.7854,-1195.4988"/>
<polygon fill="#000000" stroke="#000000" points="384.5336,-1197.6731 388.4847,-1187.8425 379.2656,-1193.0636 384.5336,-1197.6731"/>
</g>
<!-- 13 -->
<g id="node14" class="node">
<title>13</title>
<ellipse fill="none" stroke="#000000" cx="468.0969" cy="-1242" rx="42.4939" ry="18"/>
<text text-anchor="middle" x="468.0969" y="-1238.3" font-family="Times,serif" font-size="14.00" fill="#000000">data_5</text>
</g>
<!-- 13&#45;&gt;14 -->
<g id="edge14" class="edge">
<title>13&#45;&gt;14</title>
<path fill="none" stroke="#000000" d="M452.9298,-1224.937C445.0547,-1216.0775 435.2782,-1205.0789 426.5462,-1195.2554"/>
<polygon fill="#000000" stroke="#000000" points="429.0831,-1192.8413 419.8235,-1187.6924 423.8512,-1197.4918 429.0831,-1192.8413"/>
</g>
<!-- 16 -->
<g id="node17" class="node">
<title>16</title>
<ellipse fill="none" stroke="#000000" cx="471.0969" cy="-1098" rx="74.9875" ry="18"/>
<text text-anchor="middle" x="471.0969" y="-1094.3" font-family="Times,serif" font-size="14.00" fill="#000000">conv1_stack2</text>
</g>
<!-- 14&#45;&gt;16 -->
<g id="edge15" class="edge">
<title>14&#45;&gt;16</title>
<path fill="none" stroke="#000000" d="M420.6587,-1152.2022C428.8534,-1143.396 438.8831,-1132.6179 447.834,-1122.9989"/>
<polygon fill="#000000" stroke="#000000" points="450.4755,-1125.2981 454.7256,-1115.593 445.351,-1120.5294 450.4755,-1125.2981"/>
</g>
<!-- 15 -->
<g id="node16" class="node">
<title>15</title>
<ellipse fill="none" stroke="#000000" cx="539.0969" cy="-1170" rx="42.4939" ry="18"/>
<text text-anchor="middle" x="539.0969" y="-1166.3" font-family="Times,serif" font-size="14.00" fill="#000000">data_6</text>
</g>
<!-- 15&#45;&gt;16 -->
<g id="edge16" class="edge">
<title>15&#45;&gt;16</title>
<path fill="none" stroke="#000000" d="M523.3254,-1153.3008C514.8214,-1144.2965 504.1573,-1133.0052 494.6862,-1122.9769"/>
<polygon fill="#000000" stroke="#000000" points="497.1424,-1120.4801 487.7316,-1115.6132 492.0533,-1125.2865 497.1424,-1120.4801"/>
</g>
<!-- 18 -->
<g id="node19" class="node">
<title>18</title>
<ellipse fill="none" stroke="#000000" cx="538.0969" cy="-1026" rx="74.9875" ry="18"/>
<text text-anchor="middle" x="538.0969" y="-1022.3" font-family="Times,serif" font-size="14.00" fill="#000000">conv2_stack2</text>
</g>
<!-- 16&#45;&gt;18 -->
<g id="edge17" class="edge">
<title>16&#45;&gt;18</title>
<path fill="none" stroke="#000000" d="M487.6587,-1080.2022C495.8534,-1071.396 505.8831,-1060.6179 514.834,-1050.9989"/>
<polygon fill="#000000" stroke="#000000" points="517.4755,-1053.2981 521.7256,-1043.593 512.351,-1048.5294 517.4755,-1053.2981"/>
</g>
<!-- 17 -->
<g id="node18" class="node">
<title>17</title>
<ellipse fill="none" stroke="#000000" cx="606.0969" cy="-1098" rx="42.4939" ry="18"/>
<text text-anchor="middle" x="606.0969" y="-1094.3" font-family="Times,serif" font-size="14.00" fill="#000000">data_7</text>
</g>
<!-- 17&#45;&gt;18 -->
<g id="edge18" class="edge">
<title>17&#45;&gt;18</title>
<path fill="none" stroke="#000000" d="M590.3254,-1081.3008C581.8214,-1072.2965 571.1573,-1061.0052 561.6862,-1050.9769"/>
<polygon fill="#000000" stroke="#000000" points="564.1424,-1048.4801 554.7316,-1043.6132 559.0533,-1053.2865 564.1424,-1048.4801"/>
</g>
<!-- 20 -->
<g id="node21" class="node">
<title>20</title>
<ellipse fill="none" stroke="#000000" cx="605.0969" cy="-954" rx="74.9875" ry="18"/>
<text text-anchor="middle" x="605.0969" y="-950.3" font-family="Times,serif" font-size="14.00" fill="#000000">conv3_stack2</text>
</g>
<!-- 18&#45;&gt;20 -->
<g id="edge19" class="edge">
<title>18&#45;&gt;20</title>
<path fill="none" stroke="#000000" d="M554.6587,-1008.2022C562.8534,-999.396 572.8831,-988.6179 581.834,-978.9989"/>
<polygon fill="#000000" stroke="#000000" points="584.4755,-981.2981 588.7256,-971.593 579.351,-976.5294 584.4755,-981.2981"/>
</g>
<!-- 19 -->
<g id="node20" class="node">
<title>19</title>
<ellipse fill="none" stroke="#000000" cx="673.0969" cy="-1026" rx="42.4939" ry="18"/>
<text text-anchor="middle" x="673.0969" y="-1022.3" font-family="Times,serif" font-size="14.00" fill="#000000">data_8</text>
</g>
<!-- 19&#45;&gt;20 -->
<g id="edge20" class="edge">
<title>19&#45;&gt;20</title>
<path fill="none" stroke="#000000" d="M657.3254,-1009.3008C648.8214,-1000.2965 638.1573,-989.0052 628.6862,-978.9769"/>
<polygon fill="#000000" stroke="#000000" points="631.1424,-976.4801 621.7316,-971.6132 626.0533,-981.2865 631.1424,-976.4801"/>
</g>
<!-- 21 -->
<g id="node22" class="node">
<title>21</title>
<ellipse fill="none" stroke="#000000" cx="605.0969" cy="-882" rx="66.0889" ry="18"/>
<text text-anchor="middle" x="605.0969" y="-878.3" font-family="Times,serif" font-size="14.00" fill="#000000">pool_stack2</text>
</g>
<!-- 20&#45;&gt;21 -->
<g id="edge21" class="edge">
<title>20&#45;&gt;21</title>
<path fill="none" stroke="#000000" d="M605.0969,-935.8314C605.0969,-928.131 605.0969,-918.9743 605.0969,-910.4166"/>
<polygon fill="#000000" stroke="#000000" points="608.597,-910.4132 605.0969,-900.4133 601.597,-910.4133 608.597,-910.4132"/>
</g>
<!-- 23 -->
<g id="node24" class="node">
<title>23</title>
<ellipse fill="none" stroke="#000000" cx="668.0969" cy="-810" rx="74.9875" ry="18"/>
<text text-anchor="middle" x="668.0969" y="-806.3" font-family="Times,serif" font-size="14.00" fill="#000000">conv0_stack3</text>
</g>
<!-- 21&#45;&gt;23 -->
<g id="edge22" class="edge">
<title>21&#45;&gt;23</title>
<path fill="none" stroke="#000000" d="M620.6699,-864.2022C628.2421,-855.5483 637.4807,-844.99 645.7854,-835.4988"/>
<polygon fill="#000000" stroke="#000000" points="648.5336,-837.6731 652.4847,-827.8425 643.2656,-833.0636 648.5336,-837.6731"/>
</g>
<!-- 22 -->
<g id="node23" class="node">
<title>22</title>
<ellipse fill="none" stroke="#000000" cx="732.0969" cy="-882" rx="42.4939" ry="18"/>
<text text-anchor="middle" x="732.0969" y="-878.3" font-family="Times,serif" font-size="14.00" fill="#000000">data_9</text>
</g>
<!-- 22&#45;&gt;23 -->
<g id="edge23" class="edge">
<title>22&#45;&gt;23</title>
<path fill="none" stroke="#000000" d="M716.9298,-864.937C709.0547,-856.0775 699.2782,-845.0789 690.5462,-835.2554"/>
<polygon fill="#000000" stroke="#000000" points="693.0831,-832.8413 683.8235,-827.6924 687.8512,-837.4918 693.0831,-832.8413"/>
</g>
<!-- 25 -->
<g id="node26" class="node">
<title>25</title>
<ellipse fill="none" stroke="#000000" cx="738.0969" cy="-738" rx="74.9875" ry="18"/>
<text text-anchor="middle" x="738.0969" y="-734.3" font-family="Times,serif" font-size="14.00" fill="#000000">conv1_stack3</text>
</g>
<!-- 23&#45;&gt;25 -->
<g id="edge24" class="edge">
<title>23&#45;&gt;25</title>
<path fill="none" stroke="#000000" d="M685.4003,-792.2022C693.9619,-783.396 704.4406,-772.6179 713.7924,-762.9989"/>
<polygon fill="#000000" stroke="#000000" points="716.5312,-765.2028 720.9926,-755.593 711.5122,-760.3232 716.5312,-765.2028"/>
</g>
<!-- 24 -->
<g id="node25" class="node">
<title>24</title>
<ellipse fill="none" stroke="#000000" cx="809.0969" cy="-810" rx="48.1917" ry="18"/>
<text text-anchor="middle" x="809.0969" y="-806.3" font-family="Times,serif" font-size="14.00" fill="#000000">data_10</text>
</g>
<!-- 24&#45;&gt;25 -->
<g id="edge25" class="edge">
<title>24&#45;&gt;25</title>
<path fill="none" stroke="#000000" d="M792.2709,-792.937C783.4479,-783.9898 772.4736,-772.8609 762.7142,-762.964"/>
<polygon fill="#000000" stroke="#000000" points="765.0572,-760.3553 755.5436,-755.6924 760.0729,-765.2703 765.0572,-760.3553"/>
</g>
<!-- 27 -->
<g id="node28" class="node">
<title>27</title>
<ellipse fill="none" stroke="#000000" cx="808.0969" cy="-666" rx="74.9875" ry="18"/>
<text text-anchor="middle" x="808.0969" y="-662.3" font-family="Times,serif" font-size="14.00" fill="#000000">conv2_stack3</text>
</g>
<!-- 25&#45;&gt;27 -->
<g id="edge26" class="edge">
<title>25&#45;&gt;27</title>
<path fill="none" stroke="#000000" d="M755.4003,-720.2022C763.9619,-711.396 774.4406,-700.6179 783.7924,-690.9989"/>
<polygon fill="#000000" stroke="#000000" points="786.5312,-693.2028 790.9926,-683.593 781.5122,-688.3232 786.5312,-693.2028"/>
</g>
<!-- 26 -->
<g id="node27" class="node">
<title>26</title>
<ellipse fill="none" stroke="#000000" cx="879.0969" cy="-738" rx="48.1917" ry="18"/>
<text text-anchor="middle" x="879.0969" y="-734.3" font-family="Times,serif" font-size="14.00" fill="#000000">data_11</text>
</g>
<!-- 26&#45;&gt;27 -->
<g id="edge27" class="edge">
<title>26&#45;&gt;27</title>
<path fill="none" stroke="#000000" d="M862.2709,-720.937C853.4479,-711.9898 842.4736,-700.8609 832.7142,-690.964"/>
<polygon fill="#000000" stroke="#000000" points="835.0572,-688.3553 825.5436,-683.6924 830.0729,-693.2703 835.0572,-688.3553"/>
</g>
<!-- 28 -->
<g id="node29" class="node">
<title>28</title>
<ellipse fill="none" stroke="#000000" cx="808.0969" cy="-594" rx="66.0889" ry="18"/>
<text text-anchor="middle" x="808.0969" y="-590.3" font-family="Times,serif" font-size="14.00" fill="#000000">pool_stack3</text>
</g>
<!-- 27&#45;&gt;28 -->
<g id="edge28" class="edge">
<title>27&#45;&gt;28</title>
<path fill="none" stroke="#000000" d="M808.0969,-647.8314C808.0969,-640.131 808.0969,-630.9743 808.0969,-622.4166"/>
<polygon fill="#000000" stroke="#000000" points="811.597,-622.4132 808.0969,-612.4133 804.597,-622.4133 811.597,-622.4132"/>
</g>
<!-- 30 -->
<g id="node31" class="node">
<title>30</title>
<ellipse fill="none" stroke="#000000" cx="874.0969" cy="-522" rx="74.9875" ry="18"/>
<text text-anchor="middle" x="874.0969" y="-518.3" font-family="Times,serif" font-size="14.00" fill="#000000">conv0_stack4</text>
</g>
<!-- 28&#45;&gt;30 -->
<g id="edge29" class="edge">
<title>28&#45;&gt;30</title>
<path fill="none" stroke="#000000" d="M824.4115,-576.2022C832.4839,-567.396 842.3639,-556.6179 851.1812,-546.9989"/>
<polygon fill="#000000" stroke="#000000" points="853.7927,-549.3296 857.9699,-539.593 848.6326,-544.5995 853.7927,-549.3296"/>
</g>
<!-- 29 -->
<g id="node30" class="node">
<title>29</title>
<ellipse fill="none" stroke="#000000" cx="940.0969" cy="-594" rx="48.1917" ry="18"/>
<text text-anchor="middle" x="940.0969" y="-590.3" font-family="Times,serif" font-size="14.00" fill="#000000">data_12</text>
</g>
<!-- 29&#45;&gt;30 -->
<g id="edge30" class="edge">
<title>29&#45;&gt;30</title>
<path fill="none" stroke="#000000" d="M924.4558,-576.937C916.3346,-568.0775 906.2526,-557.0789 897.2477,-547.2554"/>
<polygon fill="#000000" stroke="#000000" points="899.6523,-544.6989 890.3149,-539.6924 894.4922,-549.429 899.6523,-544.6989"/>
</g>
<!-- 32 -->
<g id="node33" class="node">
<title>32</title>
<ellipse fill="none" stroke="#000000" cx="944.0969" cy="-450" rx="74.9875" ry="18"/>
<text text-anchor="middle" x="944.0969" y="-446.3" font-family="Times,serif" font-size="14.00" fill="#000000">conv1_stack4</text>
</g>
<!-- 30&#45;&gt;32 -->
<g id="edge31" class="edge">
<title>30&#45;&gt;32</title>
<path fill="none" stroke="#000000" d="M891.4003,-504.2022C899.9619,-495.396 910.4406,-484.6179 919.7924,-474.9989"/>
<polygon fill="#000000" stroke="#000000" points="922.5312,-477.2028 926.9926,-467.593 917.5122,-472.3232 922.5312,-477.2028"/>
</g>
<!-- 31 -->
<g id="node32" class="node">
<title>31</title>
<ellipse fill="none" stroke="#000000" cx="1015.0969" cy="-522" rx="48.1917" ry="18"/>
<text text-anchor="middle" x="1015.0969" y="-518.3" font-family="Times,serif" font-size="14.00" fill="#000000">data_13</text>
</g>
<!-- 31&#45;&gt;32 -->
<g id="edge32" class="edge">
<title>31&#45;&gt;32</title>
<path fill="none" stroke="#000000" d="M998.2709,-504.937C989.4479,-495.9898 978.4736,-484.8609 968.7142,-474.964"/>
<polygon fill="#000000" stroke="#000000" points="971.0572,-472.3553 961.5436,-467.6924 966.0729,-477.2703 971.0572,-472.3553"/>
</g>
<!-- 34 -->
<g id="node35" class="node">
<title>34</title>
<ellipse fill="none" stroke="#000000" cx="1014.0969" cy="-378" rx="74.9875" ry="18"/>
<text text-anchor="middle" x="1014.0969" y="-374.3" font-family="Times,serif" font-size="14.00" fill="#000000">conv2_stack4</text>
</g>
<!-- 32&#45;&gt;34 -->
<g id="edge33" class="edge">
<title>32&#45;&gt;34</title>
<path fill="none" stroke="#000000" d="M961.4003,-432.2022C969.9619,-423.396 980.4406,-412.6179 989.7924,-402.9989"/>
<polygon fill="#000000" stroke="#000000" points="992.5312,-405.2028 996.9926,-395.593 987.5122,-400.3232 992.5312,-405.2028"/>
</g>
<!-- 33 -->
<g id="node34" class="node">
<title>33</title>
<ellipse fill="none" stroke="#000000" cx="1085.0969" cy="-450" rx="48.1917" ry="18"/>
<text text-anchor="middle" x="1085.0969" y="-446.3" font-family="Times,serif" font-size="14.00" fill="#000000">data_14</text>
</g>
<!-- 33&#45;&gt;34 -->
<g id="edge34" class="edge">
<title>33&#45;&gt;34</title>
<path fill="none" stroke="#000000" d="M1068.2709,-432.937C1059.4479,-423.9898 1048.4736,-412.8609 1038.7142,-402.964"/>
<polygon fill="#000000" stroke="#000000" points="1041.0572,-400.3553 1031.5436,-395.6924 1036.0729,-405.2703 1041.0572,-400.3553"/>
</g>
<!-- 35 -->
<g id="node36" class="node">
<title>35</title>
<ellipse fill="none" stroke="#000000" cx="1014.0969" cy="-306" rx="66.0889" ry="18"/>
<text text-anchor="middle" x="1014.0969" y="-302.3" font-family="Times,serif" font-size="14.00" fill="#000000">pool_stack4</text>
</g>
<!-- 34&#45;&gt;35 -->
<g id="edge35" class="edge">
<title>34&#45;&gt;35</title>
<path fill="none" stroke="#000000" d="M1014.0969,-359.8314C1014.0969,-352.131 1014.0969,-342.9743 1014.0969,-334.4166"/>
<polygon fill="#000000" stroke="#000000" points="1017.597,-334.4132 1014.0969,-324.4133 1010.597,-334.4133 1017.597,-334.4132"/>
</g>
<!-- 37 -->
<g id="node38" class="node">
<title>37</title>
<ellipse fill="none" stroke="#000000" cx="1080.0969" cy="-234" rx="74.9875" ry="18"/>
<text text-anchor="middle" x="1080.0969" y="-230.3" font-family="Times,serif" font-size="14.00" fill="#000000">conv0_stack5</text>
</g>
<!-- 35&#45;&gt;37 -->
<g id="edge36" class="edge">
<title>35&#45;&gt;37</title>
<path fill="none" stroke="#000000" d="M1030.4115,-288.2022C1038.4839,-279.396 1048.3639,-268.6179 1057.1812,-258.9989"/>
<polygon fill="#000000" stroke="#000000" points="1059.7927,-261.3296 1063.9699,-251.593 1054.6326,-256.5995 1059.7927,-261.3296"/>
</g>
<!-- 36 -->
<g id="node37" class="node">
<title>36</title>
<ellipse fill="none" stroke="#000000" cx="1146.0969" cy="-306" rx="48.1917" ry="18"/>
<text text-anchor="middle" x="1146.0969" y="-302.3" font-family="Times,serif" font-size="14.00" fill="#000000">data_15</text>
</g>
<!-- 36&#45;&gt;37 -->
<g id="edge37" class="edge">
<title>36&#45;&gt;37</title>
<path fill="none" stroke="#000000" d="M1130.4558,-288.937C1122.3346,-280.0775 1112.2526,-269.0789 1103.2477,-259.2554"/>
<polygon fill="#000000" stroke="#000000" points="1105.6523,-256.6989 1096.3149,-251.6924 1100.4922,-261.429 1105.6523,-256.6989"/>
</g>
<!-- 39 -->
<g id="node40" class="node">
<title>39</title>
<ellipse fill="none" stroke="#000000" cx="1150.0969" cy="-162" rx="74.9875" ry="18"/>
<text text-anchor="middle" x="1150.0969" y="-158.3" font-family="Times,serif" font-size="14.00" fill="#000000">conv1_stack5</text>
</g>
<!-- 37&#45;&gt;39 -->
<g id="edge38" class="edge">
<title>37&#45;&gt;39</title>
<path fill="none" stroke="#000000" d="M1097.4003,-216.2022C1105.9619,-207.396 1116.4406,-196.6179 1125.7924,-186.9989"/>
<polygon fill="#000000" stroke="#000000" points="1128.5312,-189.2028 1132.9926,-179.593 1123.5122,-184.3232 1128.5312,-189.2028"/>
</g>
<!-- 38 -->
<g id="node39" class="node">
<title>38</title>
<ellipse fill="none" stroke="#000000" cx="1221.0969" cy="-234" rx="48.1917" ry="18"/>
<text text-anchor="middle" x="1221.0969" y="-230.3" font-family="Times,serif" font-size="14.00" fill="#000000">data_16</text>
</g>
<!-- 38&#45;&gt;39 -->
<g id="edge39" class="edge">
<title>38&#45;&gt;39</title>
<path fill="none" stroke="#000000" d="M1204.2709,-216.937C1195.4479,-207.9898 1184.4736,-196.8609 1174.7142,-186.964"/>
<polygon fill="#000000" stroke="#000000" points="1177.0572,-184.3553 1167.5436,-179.6924 1172.0729,-189.2703 1177.0572,-184.3553"/>
</g>
<!-- 41 -->
<g id="node42" class="node">
<title>41</title>
<ellipse fill="none" stroke="#000000" cx="1220.0969" cy="-90" rx="74.9875" ry="18"/>
<text text-anchor="middle" x="1220.0969" y="-86.3" font-family="Times,serif" font-size="14.00" fill="#000000">conv0_stack6</text>
</g>
<!-- 39&#45;&gt;41 -->
<g id="edge40" class="edge">
<title>39&#45;&gt;41</title>
<path fill="none" stroke="#000000" d="M1167.4003,-144.2022C1175.9619,-135.396 1186.4406,-124.6179 1195.7924,-114.9989"/>
<polygon fill="#000000" stroke="#000000" points="1198.5312,-117.2028 1202.9926,-107.593 1193.5122,-112.3232 1198.5312,-117.2028"/>
</g>
<!-- 40 -->
<g id="node41" class="node">
<title>40</title>
<ellipse fill="none" stroke="#000000" cx="1291.0969" cy="-162" rx="48.1917" ry="18"/>
<text text-anchor="middle" x="1291.0969" y="-158.3" font-family="Times,serif" font-size="14.00" fill="#000000">data_17</text>
</g>
<!-- 40&#45;&gt;41 -->
<g id="edge41" class="edge">
<title>40&#45;&gt;41</title>
<path fill="none" stroke="#000000" d="M1274.2709,-144.937C1265.4479,-135.9898 1254.4736,-124.8609 1244.7142,-114.964"/>
<polygon fill="#000000" stroke="#000000" points="1247.0572,-112.3553 1237.5436,-107.6924 1242.0729,-117.2703 1247.0572,-112.3553"/>
</g>
<!-- 43 -->
<g id="node44" class="node">
<title>43</title>
<ellipse fill="none" stroke="#000000" cx="1290.0969" cy="-18" rx="74.9875" ry="18"/>
<text text-anchor="middle" x="1290.0969" y="-14.3" font-family="Times,serif" font-size="14.00" fill="#000000">conv0_stack7</text>
</g>
<!-- 41&#45;&gt;43 -->
<g id="edge42" class="edge">
<title>41&#45;&gt;43</title>
<path fill="none" stroke="#000000" d="M1237.4003,-72.2022C1245.9619,-63.396 1256.4406,-52.6179 1265.7924,-42.9989"/>
<polygon fill="#000000" stroke="#000000" points="1268.5312,-45.2028 1272.9926,-35.593 1263.5122,-40.3232 1268.5312,-45.2028"/>
</g>
<!-- 42 -->
<g id="node43" class="node">
<title>42</title>
<ellipse fill="none" stroke="#000000" cx="1361.0969" cy="-90" rx="48.1917" ry="18"/>
<text text-anchor="middle" x="1361.0969" y="-86.3" font-family="Times,serif" font-size="14.00" fill="#000000">data_18</text>
</g>
<!-- 42&#45;&gt;43 -->
<g id="edge43" class="edge">
<title>42&#45;&gt;43</title>
<path fill="none" stroke="#000000" d="M1344.2709,-72.937C1335.4479,-63.9898 1324.4736,-52.8609 1314.7142,-42.964"/>
<polygon fill="#000000" stroke="#000000" points="1317.0572,-40.3553 1307.5436,-35.6924 1312.0729,-45.2703 1317.0572,-40.3553"/>
</g>
</g>
</svg>
