<?xml version="1.0" encoding="UTF-8" standalone="no"?>
<!DOCTYPE svg PUBLIC "-//W3C//DTD SVG 1.1//EN"
 "http://www.w3.org/Graphics/SVG/1.1/DTD/svg11.dtd">
<!-- Generated by graphviz version 2.40.1 (20161225.0304)
 -->
<!-- Title: G Pages: 1 -->
<svg width="337pt" height="476pt"
 viewBox="0.00 0.00 337.44 476.00" xmlns="http://www.w3.org/2000/svg" xmlns:xlink="http://www.w3.org/1999/xlink">
<g id="graph0" class="graph" transform="scale(1 1) rotate(0) translate(4 472)">
<title>G</title>
<polygon fill="#ffffff" stroke="transparent" points="-4,4 -4,-472 333.4435,-472 333.4435,4 -4,4"/>
<!-- 0 -->
<g id="node1" class="node">
<title>0</title>
<ellipse fill="none" stroke="#000000" cx="31.1972" cy="-450" rx="31.3957" ry="18"/>
<text text-anchor="middle" x="31.1972" y="-446.3" font-family="Times,serif" font-size="14.00" fill="#000000">data</text>
</g>
<!-- 2 -->
<g id="node3" class="node">
<title>2</title>
<ellipse fill="none" stroke="#000000" cx="76.1972" cy="-378" rx="32.4942" ry="18"/>
<text text-anchor="middle" x="76.1972" y="-374.3" font-family="Times,serif" font-size="14.00" fill="#000000">conv</text>
</g>
<!-- 0&#45;&gt;2 -->
<g id="edge1" class="edge">
<title>0&#45;&gt;2</title>
<path fill="none" stroke="#000000" d="M41.8616,-432.937C47.2741,-424.277 53.964,-413.5731 59.9968,-403.9207"/>
<polygon fill="#000000" stroke="#000000" points="62.9648,-405.7757 65.2968,-395.4407 57.0288,-402.0657 62.9648,-405.7757"/>
</g>
<!-- 1 -->
<g id="node2" class="node">
<title>1</title>
<ellipse fill="none" stroke="#000000" cx="122.1972" cy="-450" rx="42.4939" ry="18"/>
<text text-anchor="middle" x="122.1972" y="-446.3" font-family="Times,serif" font-size="14.00" fill="#000000">data_1</text>
</g>
<!-- 1&#45;&gt;2 -->
<g id="edge2" class="edge">
<title>1&#45;&gt;2</title>
<path fill="none" stroke="#000000" d="M111.0619,-432.5708C105.5812,-423.9922 98.8626,-413.4762 92.7912,-403.9732"/>
<polygon fill="#000000" stroke="#000000" points="95.5634,-401.8113 87.23,-395.2687 89.6645,-405.58 95.5634,-401.8113"/>
</g>
<!-- 4 -->
<g id="node5" class="node">
<title>4</title>
<ellipse fill="none" stroke="#000000" cx="122.1972" cy="-306" rx="43.5923" ry="18"/>
<text text-anchor="middle" x="122.1972" y="-302.3" font-family="Times,serif" font-size="14.00" fill="#000000">conv_1</text>
</g>
<!-- 2&#45;&gt;4 -->
<g id="edge3" class="edge">
<title>2&#45;&gt;4</title>
<path fill="none" stroke="#000000" d="M87.0986,-360.937C92.6314,-352.277 99.47,-341.5731 105.6368,-331.9207"/>
<polygon fill="#000000" stroke="#000000" points="108.6201,-333.752 111.0546,-323.4407 102.7212,-329.9833 108.6201,-333.752"/>
</g>
<!-- 3 -->
<g id="node4" class="node">
<title>3</title>
<ellipse fill="none" stroke="#000000" cx="169.1972" cy="-378" rx="42.4939" ry="18"/>
<text text-anchor="middle" x="169.1972" y="-374.3" font-family="Times,serif" font-size="14.00" fill="#000000">data_2</text>
</g>
<!-- 3&#45;&gt;4 -->
<g id="edge4" class="edge">
<title>3&#45;&gt;4</title>
<path fill="none" stroke="#000000" d="M157.8198,-360.5708C152.2611,-352.0553 145.4562,-341.6308 139.2889,-332.183"/>
<polygon fill="#000000" stroke="#000000" points="142.0298,-329.9789 133.6327,-323.5182 136.1682,-333.8052 142.0298,-329.9789"/>
</g>
<!-- 5 -->
<g id="node6" class="node">
<title>5</title>
<ellipse fill="none" stroke="#000000" cx="122.1972" cy="-234" rx="54.6905" ry="18"/>
<text text-anchor="middle" x="122.1972" y="-230.3" font-family="Times,serif" font-size="14.00" fill="#000000">max_pool</text>
</g>
<!-- 4&#45;&gt;5 -->
<g id="edge5" class="edge">
<title>4&#45;&gt;5</title>
<path fill="none" stroke="#000000" d="M122.1972,-287.8314C122.1972,-280.131 122.1972,-270.9743 122.1972,-262.4166"/>
<polygon fill="#000000" stroke="#000000" points="125.6973,-262.4132 122.1972,-252.4133 118.6973,-262.4133 125.6973,-262.4132"/>
</g>
<!-- 6 -->
<g id="node7" class="node">
<title>6</title>
<ellipse fill="none" stroke="#000000" cx="122.1972" cy="-162" rx="46.2923" ry="18"/>
<text text-anchor="middle" x="122.1972" y="-158.3" font-family="Times,serif" font-size="14.00" fill="#000000">reorder</text>
</g>
<!-- 5&#45;&gt;6 -->
<g id="edge6" class="edge">
<title>5&#45;&gt;6</title>
<path fill="none" stroke="#000000" d="M122.1972,-215.8314C122.1972,-208.131 122.1972,-198.9743 122.1972,-190.4166"/>
<polygon fill="#000000" stroke="#000000" points="125.6973,-190.4132 122.1972,-180.4133 118.6973,-190.4133 125.6973,-190.4132"/>
</g>
<!-- 8 -->
<g id="node9" class="node">
<title>8</title>
<ellipse fill="none" stroke="#000000" cx="175.1972" cy="-90" rx="51.1914" ry="18"/>
<text text-anchor="middle" x="175.1972" y="-86.3" font-family="Times,serif" font-size="14.00" fill="#000000">mat_mul</text>
</g>
<!-- 6&#45;&gt;8 -->
<g id="edge7" class="edge">
<title>6&#45;&gt;8</title>
<path fill="none" stroke="#000000" d="M135.0271,-144.5708C141.4247,-135.8797 149.2861,-125.2001 156.3529,-115.5998"/>
<polygon fill="#000000" stroke="#000000" points="159.1923,-117.6465 162.3019,-107.5182 153.555,-113.4968 159.1923,-117.6465"/>
</g>
<!-- 7 -->
<g id="node8" class="node">
<title>7</title>
<ellipse fill="none" stroke="#000000" cx="228.1972" cy="-162" rx="42.4939" ry="18"/>
<text text-anchor="middle" x="228.1972" y="-158.3" font-family="Times,serif" font-size="14.00" fill="#000000">data_3</text>
</g>
<!-- 7&#45;&gt;8 -->
<g id="edge8" class="edge">
<title>7&#45;&gt;8</title>
<path fill="none" stroke="#000000" d="M215.3674,-144.5708C208.9698,-135.8797 201.1084,-125.2001 194.0416,-115.5998"/>
<polygon fill="#000000" stroke="#000000" points="196.8395,-113.4968 188.0926,-107.5182 191.2021,-117.6465 196.8395,-113.4968"/>
</g>
<!-- 10 -->
<g id="node11" class="node">
<title>10</title>
<ellipse fill="none" stroke="#000000" cx="231.1972" cy="-18" rx="61.99" ry="18"/>
<text text-anchor="middle" x="231.1972" y="-14.3" font-family="Times,serif" font-size="14.00" fill="#000000">mat_mul_1</text>
</g>
<!-- 8&#45;&gt;10 -->
<g id="edge9" class="edge">
<title>8&#45;&gt;10</title>
<path fill="none" stroke="#000000" d="M188.7533,-72.5708C195.4629,-63.9441 203.6964,-53.3582 211.1202,-43.8134"/>
<polygon fill="#000000" stroke="#000000" points="214.0003,-45.8112 217.377,-35.7689 208.4748,-41.5136 214.0003,-45.8112"/>
</g>
<!-- 9 -->
<g id="node10" class="node">
<title>9</title>
<ellipse fill="none" stroke="#000000" cx="287.1972" cy="-90" rx="42.4939" ry="18"/>
<text text-anchor="middle" x="287.1972" y="-86.3" font-family="Times,serif" font-size="14.00" fill="#000000">data_4</text>
</g>
<!-- 9&#45;&gt;10 -->
<g id="edge10" class="edge">
<title>9&#45;&gt;10</title>
<path fill="none" stroke="#000000" d="M273.6412,-72.5708C266.9315,-63.9441 258.6981,-53.3582 251.2743,-43.8134"/>
<polygon fill="#000000" stroke="#000000" points="253.9197,-41.5136 245.0175,-35.7689 248.3942,-45.8112 253.9197,-41.5136"/>
</g>
</g>
</svg>
