<?xml version="1.0" encoding="UTF-8" standalone="no"?>
<!DOCTYPE svg PUBLIC "-//W3C//DTD SVG 1.1//EN"
 "http://www.w3.org/Graphics/SVG/1.1/DTD/svg11.dtd">
<!-- Generated by graphviz version 2.40.1 (20161225.0304)
 -->
<!-- Title: G Pages: 1 -->
<svg width="797pt" height="1268pt"
 viewBox="0.00 0.00 797.29 1268.00" xmlns="http://www.w3.org/2000/svg" xmlns:xlink="http://www.w3.org/1999/xlink">
<g id="graph0" class="graph" transform="scale(1 1) rotate(0) translate(4 1264)">
<title>G</title>
<polygon fill="#ffffff" stroke="transparent" points="-4,4 -4,-1264 793.293,-1264 793.293,4 -4,4"/>
<!-- 0 -->
<g id="node1" class="node">
<title>0</title>
<ellipse fill="none" stroke="#000000" cx="31.1972" cy="-1242" rx="31.3957" ry="18"/>
<text text-anchor="middle" x="31.1972" y="-1238.3" font-family="Times,serif" font-size="14.00" fill="#000000">data</text>
</g>
<!-- 2 -->
<g id="node3" class="node">
<title>2</title>
<ellipse fill="none" stroke="#000000" cx="76.1972" cy="-1170" rx="32.4942" ry="18"/>
<text text-anchor="middle" x="76.1972" y="-1166.3" font-family="Times,serif" font-size="14.00" fill="#000000">conv</text>
</g>
<!-- 0&#45;&gt;2 -->
<g id="edge1" class="edge">
<title>0&#45;&gt;2</title>
<path fill="none" stroke="#000000" d="M41.8616,-1224.937C47.2741,-1216.277 53.964,-1205.5731 59.9968,-1195.9207"/>
<polygon fill="#000000" stroke="#000000" points="62.9648,-1197.7757 65.2968,-1187.4407 57.0288,-1194.0657 62.9648,-1197.7757"/>
</g>
<!-- 1 -->
<g id="node2" class="node">
<title>1</title>
<ellipse fill="none" stroke="#000000" cx="122.1972" cy="-1242" rx="42.4939" ry="18"/>
<text text-anchor="middle" x="122.1972" y="-1238.3" font-family="Times,serif" font-size="14.00" fill="#000000">data_1</text>
</g>
<!-- 1&#45;&gt;2 -->
<g id="edge2" class="edge">
<title>1&#45;&gt;2</title>
<path fill="none" stroke="#000000" d="M111.0619,-1224.5708C105.5812,-1215.9922 98.8626,-1205.4762 92.7912,-1195.9732"/>
<polygon fill="#000000" stroke="#000000" points="95.5634,-1193.8113 87.23,-1187.2687 89.6645,-1197.58 95.5634,-1193.8113"/>
</g>
<!-- 4 -->
<g id="node5" class="node">
<title>4</title>
<ellipse fill="none" stroke="#000000" cx="122.1972" cy="-1098" rx="43.5923" ry="18"/>
<text text-anchor="middle" x="122.1972" y="-1094.3" font-family="Times,serif" font-size="14.00" fill="#000000">conv_1</text>
</g>
<!-- 2&#45;&gt;4 -->
<g id="edge3" class="edge">
<title>2&#45;&gt;4</title>
<path fill="none" stroke="#000000" d="M87.0986,-1152.937C92.6314,-1144.277 99.47,-1133.5731 105.6368,-1123.9207"/>
<polygon fill="#000000" stroke="#000000" points="108.6201,-1125.752 111.0546,-1115.4407 102.7212,-1121.9833 108.6201,-1125.752"/>
</g>
<!-- 3 -->
<g id="node4" class="node">
<title>3</title>
<ellipse fill="none" stroke="#000000" cx="169.1972" cy="-1170" rx="42.4939" ry="18"/>
<text text-anchor="middle" x="169.1972" y="-1166.3" font-family="Times,serif" font-size="14.00" fill="#000000">data_2</text>
</g>
<!-- 3&#45;&gt;4 -->
<g id="edge4" class="edge">
<title>3&#45;&gt;4</title>
<path fill="none" stroke="#000000" d="M157.8198,-1152.5708C152.2611,-1144.0553 145.4562,-1133.6308 139.2889,-1124.183"/>
<polygon fill="#000000" stroke="#000000" points="142.0298,-1121.9789 133.6327,-1115.5182 136.1682,-1125.8052 142.0298,-1121.9789"/>
</g>
<!-- 5 -->
<g id="node6" class="node">
<title>5</title>
<ellipse fill="none" stroke="#000000" cx="122.1972" cy="-1026" rx="54.6905" ry="18"/>
<text text-anchor="middle" x="122.1972" y="-1022.3" font-family="Times,serif" font-size="14.00" fill="#000000">max_pool</text>
</g>
<!-- 4&#45;&gt;5 -->
<g id="edge5" class="edge">
<title>4&#45;&gt;5</title>
<path fill="none" stroke="#000000" d="M122.1972,-1079.8314C122.1972,-1072.131 122.1972,-1062.9743 122.1972,-1054.4166"/>
<polygon fill="#000000" stroke="#000000" points="125.6973,-1054.4132 122.1972,-1044.4133 118.6973,-1054.4133 125.6973,-1054.4132"/>
</g>
<!-- 7 -->
<g id="node8" class="node">
<title>7</title>
<ellipse fill="none" stroke="#000000" cx="179.1972" cy="-954" rx="43.5923" ry="18"/>
<text text-anchor="middle" x="179.1972" y="-950.3" font-family="Times,serif" font-size="14.00" fill="#000000">conv_2</text>
</g>
<!-- 5&#45;&gt;7 -->
<g id="edge6" class="edge">
<title>5&#45;&gt;7</title>
<path fill="none" stroke="#000000" d="M135.9953,-1008.5708C142.9268,-999.8153 151.4558,-989.0418 159.0994,-979.3867"/>
<polygon fill="#000000" stroke="#000000" points="162.0633,-981.2816 165.5262,-971.2687 156.575,-976.9367 162.0633,-981.2816"/>
</g>
<!-- 6 -->
<g id="node7" class="node">
<title>6</title>
<ellipse fill="none" stroke="#000000" cx="237.1972" cy="-1026" rx="42.4939" ry="18"/>
<text text-anchor="middle" x="237.1972" y="-1022.3" font-family="Times,serif" font-size="14.00" fill="#000000">data_3</text>
</g>
<!-- 6&#45;&gt;7 -->
<g id="edge7" class="edge">
<title>6&#45;&gt;7</title>
<path fill="none" stroke="#000000" d="M223.452,-1008.937C216.3335,-1000.1003 207.5007,-989.1354 199.6028,-979.3311"/>
<polygon fill="#000000" stroke="#000000" points="202.2456,-977.0326 193.2467,-971.4407 196.7943,-981.4239 202.2456,-977.0326"/>
</g>
<!-- 9 -->
<g id="node10" class="node">
<title>9</title>
<ellipse fill="none" stroke="#000000" cx="231.1972" cy="-882" rx="43.5923" ry="18"/>
<text text-anchor="middle" x="231.1972" y="-878.3" font-family="Times,serif" font-size="14.00" fill="#000000">conv_3</text>
</g>
<!-- 7&#45;&gt;9 -->
<g id="edge8" class="edge">
<title>7&#45;&gt;9</title>
<path fill="none" stroke="#000000" d="M191.785,-936.5708C198.1084,-927.8153 205.8893,-917.0418 212.8624,-907.3867"/>
<polygon fill="#000000" stroke="#000000" points="215.7078,-909.4247 218.7254,-899.2687 210.0331,-905.3263 215.7078,-909.4247"/>
</g>
<!-- 8 -->
<g id="node9" class="node">
<title>8</title>
<ellipse fill="none" stroke="#000000" cx="283.1972" cy="-954" rx="42.4939" ry="18"/>
<text text-anchor="middle" x="283.1972" y="-950.3" font-family="Times,serif" font-size="14.00" fill="#000000">data_4</text>
</g>
<!-- 8&#45;&gt;9 -->
<g id="edge9" class="edge">
<title>8&#45;&gt;9</title>
<path fill="none" stroke="#000000" d="M270.6095,-936.5708C264.2861,-927.8153 256.5052,-917.0418 249.5321,-907.3867"/>
<polygon fill="#000000" stroke="#000000" points="252.3614,-905.3263 243.6691,-899.2687 246.6866,-909.4247 252.3614,-905.3263"/>
</g>
<!-- 10 -->
<g id="node11" class="node">
<title>10</title>
<ellipse fill="none" stroke="#000000" cx="231.1972" cy="-810" rx="65.7887" ry="18"/>
<text text-anchor="middle" x="231.1972" y="-806.3" font-family="Times,serif" font-size="14.00" fill="#000000">max_pool_1</text>
</g>
<!-- 9&#45;&gt;10 -->
<g id="edge10" class="edge">
<title>9&#45;&gt;10</title>
<path fill="none" stroke="#000000" d="M231.1972,-863.8314C231.1972,-856.131 231.1972,-846.9743 231.1972,-838.4166"/>
<polygon fill="#000000" stroke="#000000" points="234.6973,-838.4132 231.1972,-828.4133 227.6973,-838.4133 234.6973,-838.4132"/>
</g>
<!-- 12 -->
<g id="node13" class="node">
<title>12</title>
<ellipse fill="none" stroke="#000000" cx="294.1972" cy="-738" rx="43.5923" ry="18"/>
<text text-anchor="middle" x="294.1972" y="-734.3" font-family="Times,serif" font-size="14.00" fill="#000000">conv_4</text>
</g>
<!-- 10&#45;&gt;12 -->
<g id="edge11" class="edge">
<title>10&#45;&gt;12</title>
<path fill="none" stroke="#000000" d="M246.7703,-792.2022C254.5133,-783.3531 263.9986,-772.5127 272.4463,-762.8583"/>
<polygon fill="#000000" stroke="#000000" points="275.2861,-764.9278 279.2372,-755.0972 270.0181,-760.3182 275.2861,-764.9278"/>
</g>
<!-- 11 -->
<g id="node12" class="node">
<title>11</title>
<ellipse fill="none" stroke="#000000" cx="357.1972" cy="-810" rx="42.4939" ry="18"/>
<text text-anchor="middle" x="357.1972" y="-806.3" font-family="Times,serif" font-size="14.00" fill="#000000">data_5</text>
</g>
<!-- 11&#45;&gt;12 -->
<g id="edge12" class="edge">
<title>11&#45;&gt;12</title>
<path fill="none" stroke="#000000" d="M342.2671,-792.937C334.3428,-783.8806 324.4627,-772.5891 315.7243,-762.6023"/>
<polygon fill="#000000" stroke="#000000" points="318.2393,-760.1615 309.0202,-754.9405 312.9712,-764.7711 318.2393,-760.1615"/>
</g>
<!-- 14 -->
<g id="node15" class="node">
<title>14</title>
<ellipse fill="none" stroke="#000000" cx="346.1972" cy="-666" rx="43.5923" ry="18"/>
<text text-anchor="middle" x="346.1972" y="-662.3" font-family="Times,serif" font-size="14.00" fill="#000000">conv_5</text>
</g>
<!-- 12&#45;&gt;14 -->
<g id="edge13" class="edge">
<title>12&#45;&gt;14</title>
<path fill="none" stroke="#000000" d="M306.785,-720.5708C313.1084,-711.8153 320.8893,-701.0418 327.8624,-691.3867"/>
<polygon fill="#000000" stroke="#000000" points="330.7078,-693.4247 333.7254,-683.2687 325.0331,-689.3263 330.7078,-693.4247"/>
</g>
<!-- 13 -->
<g id="node14" class="node">
<title>13</title>
<ellipse fill="none" stroke="#000000" cx="398.1972" cy="-738" rx="42.4939" ry="18"/>
<text text-anchor="middle" x="398.1972" y="-734.3" font-family="Times,serif" font-size="14.00" fill="#000000">data_6</text>
</g>
<!-- 13&#45;&gt;14 -->
<g id="edge14" class="edge">
<title>13&#45;&gt;14</title>
<path fill="none" stroke="#000000" d="M385.6095,-720.5708C379.2861,-711.8153 371.5052,-701.0418 364.5321,-691.3867"/>
<polygon fill="#000000" stroke="#000000" points="367.3614,-689.3263 358.6691,-683.2687 361.6866,-693.4247 367.3614,-689.3263"/>
</g>
<!-- 16 -->
<g id="node17" class="node">
<title>16</title>
<ellipse fill="none" stroke="#000000" cx="398.1972" cy="-594" rx="43.5923" ry="18"/>
<text text-anchor="middle" x="398.1972" y="-590.3" font-family="Times,serif" font-size="14.00" fill="#000000">conv_6</text>
</g>
<!-- 14&#45;&gt;16 -->
<g id="edge15" class="edge">
<title>14&#45;&gt;16</title>
<path fill="none" stroke="#000000" d="M358.785,-648.5708C365.1084,-639.8153 372.8893,-629.0418 379.8624,-619.3867"/>
<polygon fill="#000000" stroke="#000000" points="382.7078,-621.4247 385.7254,-611.2687 377.0331,-617.3263 382.7078,-621.4247"/>
</g>
<!-- 15 -->
<g id="node16" class="node">
<title>15</title>
<ellipse fill="none" stroke="#000000" cx="450.1972" cy="-666" rx="42.4939" ry="18"/>
<text text-anchor="middle" x="450.1972" y="-662.3" font-family="Times,serif" font-size="14.00" fill="#000000">data_7</text>
</g>
<!-- 15&#45;&gt;16 -->
<g id="edge16" class="edge">
<title>15&#45;&gt;16</title>
<path fill="none" stroke="#000000" d="M437.6095,-648.5708C431.2861,-639.8153 423.5052,-629.0418 416.5321,-619.3867"/>
<polygon fill="#000000" stroke="#000000" points="419.3614,-617.3263 410.6691,-611.2687 413.6866,-621.4247 419.3614,-617.3263"/>
</g>
<!-- 17 -->
<g id="node18" class="node">
<title>17</title>
<ellipse fill="none" stroke="#000000" cx="398.1972" cy="-522" rx="65.7887" ry="18"/>
<text text-anchor="middle" x="398.1972" y="-518.3" font-family="Times,serif" font-size="14.00" fill="#000000">max_pool_2</text>
</g>
<!-- 16&#45;&gt;17 -->
<g id="edge17" class="edge">
<title>16&#45;&gt;17</title>
<path fill="none" stroke="#000000" d="M398.1972,-575.8314C398.1972,-568.131 398.1972,-558.9743 398.1972,-550.4166"/>
<polygon fill="#000000" stroke="#000000" points="401.6973,-550.4132 398.1972,-540.4133 394.6973,-550.4133 401.6973,-550.4132"/>
</g>
<!-- 19 -->
<g id="node20" class="node">
<title>19</title>
<ellipse fill="none" stroke="#000000" cx="461.1972" cy="-450" rx="43.5923" ry="18"/>
<text text-anchor="middle" x="461.1972" y="-446.3" font-family="Times,serif" font-size="14.00" fill="#000000">conv_7</text>
</g>
<!-- 17&#45;&gt;19 -->
<g id="edge18" class="edge">
<title>17&#45;&gt;19</title>
<path fill="none" stroke="#000000" d="M413.7703,-504.2022C421.5133,-495.3531 430.9986,-484.5127 439.4463,-474.8583"/>
<polygon fill="#000000" stroke="#000000" points="442.2861,-476.9278 446.2372,-467.0972 437.0181,-472.3182 442.2861,-476.9278"/>
</g>
<!-- 18 -->
<g id="node19" class="node">
<title>18</title>
<ellipse fill="none" stroke="#000000" cx="524.1972" cy="-522" rx="42.4939" ry="18"/>
<text text-anchor="middle" x="524.1972" y="-518.3" font-family="Times,serif" font-size="14.00" fill="#000000">data_8</text>
</g>
<!-- 18&#45;&gt;19 -->
<g id="edge19" class="edge">
<title>18&#45;&gt;19</title>
<path fill="none" stroke="#000000" d="M509.2671,-504.937C501.3428,-495.8806 491.4627,-484.5891 482.7243,-474.6023"/>
<polygon fill="#000000" stroke="#000000" points="485.2393,-472.1615 476.0202,-466.9405 479.9712,-476.7711 485.2393,-472.1615"/>
</g>
<!-- 21 -->
<g id="node22" class="node">
<title>21</title>
<ellipse fill="none" stroke="#000000" cx="513.1972" cy="-378" rx="43.5923" ry="18"/>
<text text-anchor="middle" x="513.1972" y="-374.3" font-family="Times,serif" font-size="14.00" fill="#000000">conv_8</text>
</g>
<!-- 19&#45;&gt;21 -->
<g id="edge20" class="edge">
<title>19&#45;&gt;21</title>
<path fill="none" stroke="#000000" d="M473.785,-432.5708C480.1084,-423.8153 487.8893,-413.0418 494.8624,-403.3867"/>
<polygon fill="#000000" stroke="#000000" points="497.7078,-405.4247 500.7254,-395.2687 492.0331,-401.3263 497.7078,-405.4247"/>
</g>
<!-- 20 -->
<g id="node21" class="node">
<title>20</title>
<ellipse fill="none" stroke="#000000" cx="565.1972" cy="-450" rx="42.4939" ry="18"/>
<text text-anchor="middle" x="565.1972" y="-446.3" font-family="Times,serif" font-size="14.00" fill="#000000">data_9</text>
</g>
<!-- 20&#45;&gt;21 -->
<g id="edge21" class="edge">
<title>20&#45;&gt;21</title>
<path fill="none" stroke="#000000" d="M552.6095,-432.5708C546.2861,-423.8153 538.5052,-413.0418 531.5321,-403.3867"/>
<polygon fill="#000000" stroke="#000000" points="534.3614,-401.3263 525.6691,-395.2687 528.6866,-405.4247 534.3614,-401.3263"/>
</g>
<!-- 23 -->
<g id="node24" class="node">
<title>23</title>
<ellipse fill="none" stroke="#000000" cx="568.1972" cy="-306" rx="43.5923" ry="18"/>
<text text-anchor="middle" x="568.1972" y="-302.3" font-family="Times,serif" font-size="14.00" fill="#000000">conv_9</text>
</g>
<!-- 21&#45;&gt;23 -->
<g id="edge22" class="edge">
<title>21&#45;&gt;23</title>
<path fill="none" stroke="#000000" d="M526.5112,-360.5708C533.1994,-351.8153 541.4292,-341.0418 548.8046,-331.3867"/>
<polygon fill="#000000" stroke="#000000" points="551.7168,-333.3401 555.0059,-323.2687 546.1541,-329.0908 551.7168,-333.3401"/>
</g>
<!-- 22 -->
<g id="node23" class="node">
<title>22</title>
<ellipse fill="none" stroke="#000000" cx="623.1972" cy="-378" rx="48.1917" ry="18"/>
<text text-anchor="middle" x="623.1972" y="-374.3" font-family="Times,serif" font-size="14.00" fill="#000000">data_10</text>
</g>
<!-- 22&#45;&gt;23 -->
<g id="edge23" class="edge">
<title>22&#45;&gt;23</title>
<path fill="none" stroke="#000000" d="M609.8833,-360.5708C603.1951,-351.8153 594.9652,-341.0418 587.5898,-331.3867"/>
<polygon fill="#000000" stroke="#000000" points="590.2404,-329.0908 581.3886,-323.2687 584.6777,-333.3401 590.2404,-329.0908"/>
</g>
<!-- 24 -->
<g id="node25" class="node">
<title>24</title>
<ellipse fill="none" stroke="#000000" cx="568.1972" cy="-234" rx="65.7887" ry="18"/>
<text text-anchor="middle" x="568.1972" y="-230.3" font-family="Times,serif" font-size="14.00" fill="#000000">max_pool_3</text>
</g>
<!-- 23&#45;&gt;24 -->
<g id="edge24" class="edge">
<title>23&#45;&gt;24</title>
<path fill="none" stroke="#000000" d="M568.1972,-287.8314C568.1972,-280.131 568.1972,-270.9743 568.1972,-262.4166"/>
<polygon fill="#000000" stroke="#000000" points="571.6973,-262.4132 568.1972,-252.4133 564.6973,-262.4133 571.6973,-262.4132"/>
</g>
<!-- 25 -->
<g id="node26" class="node">
<title>25</title>
<ellipse fill="none" stroke="#000000" cx="568.1972" cy="-162" rx="46.2923" ry="18"/>
<text text-anchor="middle" x="568.1972" y="-158.3" font-family="Times,serif" font-size="14.00" fill="#000000">reorder</text>
</g>
<!-- 24&#45;&gt;25 -->
<g id="edge25" class="edge">
<title>24&#45;&gt;25</title>
<path fill="none" stroke="#000000" d="M568.1972,-215.8314C568.1972,-208.131 568.1972,-198.9743 568.1972,-190.4166"/>
<polygon fill="#000000" stroke="#000000" points="571.6973,-190.4132 568.1972,-180.4133 564.6973,-190.4133 571.6973,-190.4132"/>
</g>
<!-- 27 -->
<g id="node28" class="node">
<title>27</title>
<ellipse fill="none" stroke="#000000" cx="624.1972" cy="-90" rx="51.1914" ry="18"/>
<text text-anchor="middle" x="624.1972" y="-86.3" font-family="Times,serif" font-size="14.00" fill="#000000">mat_mul</text>
</g>
<!-- 25&#45;&gt;27 -->
<g id="edge26" class="edge">
<title>25&#45;&gt;27</title>
<path fill="none" stroke="#000000" d="M581.7533,-144.5708C588.513,-135.8797 596.8194,-125.2001 604.2862,-115.5998"/>
<polygon fill="#000000" stroke="#000000" points="607.1952,-117.5606 610.5719,-107.5182 601.6698,-113.263 607.1952,-117.5606"/>
</g>
<!-- 26 -->
<g id="node27" class="node">
<title>26</title>
<ellipse fill="none" stroke="#000000" cx="680.1972" cy="-162" rx="48.1917" ry="18"/>
<text text-anchor="middle" x="680.1972" y="-158.3" font-family="Times,serif" font-size="14.00" fill="#000000">data_11</text>
</g>
<!-- 26&#45;&gt;27 -->
<g id="edge27" class="edge">
<title>26&#45;&gt;27</title>
<path fill="none" stroke="#000000" d="M666.6412,-144.5708C659.8815,-135.8797 651.5751,-125.2001 644.1082,-115.5998"/>
<polygon fill="#000000" stroke="#000000" points="646.7247,-113.263 637.8225,-107.5182 641.1992,-117.5606 646.7247,-113.263"/>
</g>
<!-- 29 -->
<g id="node30" class="node">
<title>29</title>
<ellipse fill="none" stroke="#000000" cx="682.1972" cy="-18" rx="61.99" ry="18"/>
<text text-anchor="middle" x="682.1972" y="-14.3" font-family="Times,serif" font-size="14.00" fill="#000000">mat_mul_1</text>
</g>
<!-- 27&#45;&gt;29 -->
<g id="edge28" class="edge">
<title>27&#45;&gt;29</title>
<path fill="none" stroke="#000000" d="M638.2374,-72.5708C645.1867,-63.9441 653.7142,-53.3582 661.4031,-43.8134"/>
<polygon fill="#000000" stroke="#000000" points="664.3357,-45.7521 667.8834,-35.7689 658.8844,-41.3608 664.3357,-45.7521"/>
</g>
<!-- 28 -->
<g id="node29" class="node">
<title>28</title>
<ellipse fill="none" stroke="#000000" cx="741.1972" cy="-90" rx="48.1917" ry="18"/>
<text text-anchor="middle" x="741.1972" y="-86.3" font-family="Times,serif" font-size="14.00" fill="#000000">data_12</text>
</g>
<!-- 28&#45;&gt;29 -->
<g id="edge29" class="edge">
<title>28&#45;&gt;29</title>
<path fill="none" stroke="#000000" d="M726.915,-72.5708C719.7212,-63.7919 710.8648,-52.9841 702.9368,-43.3093"/>
<polygon fill="#000000" stroke="#000000" points="705.5979,-41.0347 696.5525,-35.5182 700.1835,-45.4714 705.5979,-41.0347"/>
</g>
</g>
</svg>
